{"glyphs":{"0":{"ha":376,"x_min":11,"x_max":365,"o":"m 289 1038 q 343 1015 321 1038 q 365 963 365 993 l 365 74 q 343 21 365 42 q 289 0 321 0 l 85 0 q 32 21 53 0 q 11 74 11 42 l 11 963 q 32 1015 11 993 q 85 1038 53 1038 l 289 1038 m 215 925 l 161 925 l 161 114 l 215 114 l 215 925 z "},"1":{"ha":249,"x_min":7,"x_max":238,"o":"m 86 925 l 7 925 l 7 1036 l 238 1036 l 238 0 l 86 0 l 86 925 z "},"2":{"ha":389,"x_min":11,"x_max":378,"o":"m 228 364 l 378 364 l 378 0 l 11 0 l 11 160 q 26 281 11 225 q 64 388 42 336 q 113 493 86 440 q 163 605 140 546 q 200 733 185 664 q 215 888 215 801 l 215 925 l 161 925 l 161 789 l 11 789 l 11 961 q 33 1014 11 992 q 86 1036 54 1036 l 289 1036 q 343 1014 321 1036 q 365 961 365 992 l 365 899 q 350 739 365 810 q 313 608 335 668 q 263 494 290 547 q 214 389 236 442 q 176 281 192 336 q 161 160 161 225 l 161 114 l 228 114 l 228 364 z "},"3":{"ha":376,"x_min":11,"x_max":365,"o":"m 92 500 l 92 611 l 215 611 l 215 925 l 161 925 l 161 789 l 11 789 l 11 961 q 33 1014 11 992 q 86 1036 54 1036 l 290 1036 q 341 1016 319 1036 q 365 967 363 996 l 365 631 q 346 579 365 600 q 299 556 326 558 q 346 531 326 553 q 365 481 365 508 l 365 75 q 345 24 365 44 q 294 0 325 3 l 86 0 q 33 22 54 0 q 11 75 11 44 l 11 364 l 161 364 l 161 111 l 215 111 l 215 500 l 92 500 z "},"4":{"ha":442,"x_min":0,"x_max":435,"o":"m 238 171 l 0 171 l 192 1036 l 385 1036 l 385 285 l 435 285 l 435 171 l 385 171 l 385 0 l 238 0 l 238 171 m 238 285 l 238 810 l 183 285 l 238 285 z "},"5":{"ha":378,"x_min":11,"x_max":367,"o":"m 161 722 l 300 722 q 347 697 328 719 q 367 647 367 675 l 367 75 q 347 24 367 44 q 296 0 326 3 l 88 0 q 34 22 56 0 q 13 75 13 44 l 13 364 l 163 364 l 163 111 l 217 111 l 217 611 l 11 611 l 11 1036 l 365 1036 l 365 925 l 161 925 l 161 722 z "},"6":{"ha":378,"x_min":11,"x_max":367,"o":"m 163 722 l 292 722 q 345 701 324 722 q 367 647 367 679 l 367 75 q 345 22 367 43 q 292 0 324 0 l 86 0 q 33 22 54 0 q 11 75 11 43 l 11 961 q 33 1015 11 993 q 86 1036 54 1036 l 292 1036 q 345 1015 324 1036 q 367 961 367 993 l 367 789 l 217 789 l 217 925 l 163 925 l 163 722 m 163 611 l 163 110 l 217 110 l 217 611 l 163 611 z "},"7":{"ha":369,"x_min":11,"x_max":365,"o":"m 31 0 q 53 208 38 115 q 90 376 69 300 q 132 516 110 451 q 172 640 154 581 q 202 759 190 700 q 215 885 214 818 l 215 925 l 161 925 l 161 789 l 11 789 l 11 1036 l 365 1036 l 365 908 q 353 775 365 838 q 324 651 342 713 q 283 524 306 589 q 241 381 261 458 q 204 210 221 303 q 181 0 188 117 l 31 0 z "},"8":{"ha":376,"x_min":11,"x_max":365,"o":"m 290 1036 q 344 1015 322 1036 q 365 961 365 993 l 365 631 q 346 579 365 600 q 299 556 326 558 q 346 531 326 553 q 365 481 365 508 l 365 75 q 344 22 365 43 q 290 0 322 0 l 86 0 q 33 22 54 0 q 11 75 11 43 l 11 481 q 31 531 11 508 q 78 556 50 553 q 31 579 50 558 q 11 631 11 600 l 11 961 q 33 1015 11 993 q 86 1036 54 1036 l 290 1036 m 161 500 l 161 110 l 215 110 l 215 500 l 161 500 m 161 925 l 161 611 l 215 611 l 215 925 l 161 925 z "},"9":{"ha":378,"x_min":11,"x_max":367,"o":"m 215 425 l 86 425 q 33 447 54 425 q 11 500 11 468 l 11 961 q 33 1015 11 993 q 86 1036 54 1036 l 292 1036 q 345 1015 324 1036 q 367 961 367 993 l 367 75 q 345 22 367 43 q 292 0 324 0 l 86 0 q 33 22 54 0 q 11 75 11 43 l 11 364 l 161 364 l 161 106 l 215 106 l 215 425 m 215 536 l 215 925 l 161 925 l 161 536 l 215 536 z "},"\r":{"ha":139,"x_min":0,"x_max":0,"o":""},"\u0000":{"ha":0,"x_min":0,"x_max":0,"o":""}," ":{"ha":153,"x_min":0,"x_max":0,"o":""},"!":{"ha":200,"x_min":11,"x_max":188,"o":"m 188 1036 q 184 888 186 964 q 180 738 182 813 q 175 591 178 663 q 171 456 172 519 q 161 163 165 306 l 38 163 q 26 456 32 306 q 22 591 24 519 q 17 738 19 663 q 14 888 15 813 q 11 1036 13 964 l 188 1036 m 29 114 l 169 114 l 169 0 l 29 0 l 29 114 z "},"\"":{"ha":317,"x_min":11,"x_max":306,"o":"m 171 1036 l 306 1036 l 306 935 q 295 885 306 907 q 257 839 285 863 l 171 767 l 171 878 l 247 922 l 171 922 l 171 1036 m 11 1036 l 146 1036 l 146 935 q 135 890 146 907 q 97 847 125 872 l 11 767 l 11 878 l 88 922 l 11 922 l 11 1036 z "},"#":{"ha":444,"x_min":28,"x_max":417,"o":"m 28 699 l 93 699 l 121 1038 l 225 1038 l 197 699 l 256 699 l 283 1038 l 388 1038 l 360 699 l 417 699 l 417 607 l 353 607 l 343 488 l 417 488 l 417 396 l 336 396 l 306 0 l 201 0 l 232 396 l 174 396 l 143 0 l 39 0 l 69 396 l 28 396 l 28 488 l 76 488 l 86 607 l 28 607 l 28 699 m 181 488 l 239 488 l 249 607 l 190 607 l 181 488 z "},"$":{"ha":376,"x_min":11,"x_max":365,"o":"m 215 789 l 215 925 l 161 925 l 161 888 q 193 742 161 819 q 263 578 225 664 q 333 400 301 493 q 365 210 365 307 l 365 74 q 344 21 365 42 q 290 0 322 0 l 242 0 l 263 -122 l 113 -122 l 132 0 l 88 0 q 34 21 56 0 q 13 74 13 42 l 13 351 l 161 351 l 161 114 l 215 114 l 215 210 q 183 393 215 307 q 113 560 151 479 q 43 724 75 642 q 11 899 11 807 l 11 961 q 33 1014 11 992 q 88 1036 56 1036 l 132 1036 l 113 1158 l 263 1158 l 242 1036 l 290 1036 q 344 1014 322 1036 q 365 961 365 992 l 365 789 l 215 789 z "},"%":{"ha":544,"x_min":28,"x_max":517,"o":"m 164 0 l 74 0 l 379 1038 l 469 1038 l 164 0 m 197 1036 q 231 1023 217 1036 q 244 990 244 1010 l 244 649 q 231 616 244 629 q 197 603 217 603 l 74 603 q 41 616 54 603 q 28 649 28 629 l 28 990 q 41 1023 28 1010 q 74 1036 54 1036 l 197 1036 m 153 967 l 119 967 l 119 674 l 153 674 l 153 967 m 469 433 q 503 420 489 433 q 517 388 517 407 l 517 46 q 503 13 517 26 q 469 0 489 0 l 346 0 q 313 13 326 0 q 300 46 300 26 l 300 388 q 313 420 300 407 q 346 433 326 433 l 469 433 m 425 364 l 392 364 l 392 71 l 425 71 l 425 364 z "},"&":{"ha":553,"x_min":11,"x_max":542,"o":"m 215 518 l 364 518 l 364 74 q 342 21 364 42 q 289 0 321 0 l 86 0 q 33 21 54 0 q 11 74 11 42 l 11 388 q 20 456 11 421 q 42 524 29 492 q 69 585 54 557 q 94 633 83 614 l 203 826 q 215 890 215 860 l 215 925 l 161 925 l 161 888 q 171 817 161 847 l 90 674 q 35 769 58 718 q 11 899 11 819 l 11 961 q 33 1014 11 992 q 88 1036 56 1036 l 290 1036 q 344 1014 322 1036 q 365 961 365 992 l 365 885 q 357 828 365 853 q 329 769 349 804 l 210 557 q 161 371 161 471 l 161 114 l 215 114 l 215 518 m 468 660 q 520 638 499 660 q 542 586 542 617 l 542 0 l 392 0 l 392 546 l 232 546 l 296 660 l 468 660 z "},"'":{"ha":157,"x_min":11,"x_max":146,"o":"m 11 1036 l 146 1036 l 146 935 q 135 890 146 907 q 97 847 125 872 l 11 767 l 11 878 l 88 922 l 11 922 l 11 1036 z "},"(":{"ha":303,"x_min":28,"x_max":275,"o":"m 274 1197 q 181 863 211 1038 q 150 510 150 688 q 181 164 150 333 q 274 -158 211 -6 l 164 -158 q 67 153 107 -19 q 28 519 28 325 q 67 886 28 714 q 164 1197 107 1058 l 275 1197 l 274 1197 z "},")":{"ha":303,"x_min":28,"x_max":275,"o":"m 29 -158 q 122 176 92 1 q 153 529 153 351 q 122 875 153 706 q 29 1197 92 1044 l 139 1197 q 235 886 196 1058 q 275 519 275 714 q 235 153 275 325 q 139 -158 196 -19 l 28 -158 l 29 -158 z "},"*":{"ha":351,"x_min":28,"x_max":324,"o":"m 231 883 l 303 825 l 210 757 l 176 844 l 142 757 l 49 825 l 122 883 l 28 889 l 64 999 l 143 947 l 118 1038 l 233 1038 l 210 947 l 288 999 l 324 889 l 231 883 z "},"+":{"ha":431,"x_min":69,"x_max":361,"o":"m 261 600 l 261 500 l 361 500 l 361 410 l 261 410 l 261 308 l 171 308 l 171 410 l 69 410 l 69 500 l 171 500 l 171 600 l 261 600 z "},",":{"ha":190,"x_min":28,"x_max":163,"o":"m 28 114 l 163 114 l 163 13 q 152 -37 163 -15 q 114 -83 142 -60 l 28 -158 l 28 -53 l 104 0 l 28 0 l 28 114 z "},"-":{"ha":438,"x_min":42,"x_max":396,"o":"m 42 500 l 396 500 l 396 389 l 42 389 l 42 500 z "},".":{"ha":190,"x_min":28,"x_max":163,"o":"m 28 114 l 163 114 l 163 0 l 28 0 l 28 114 z "},"/":{"ha":319,"x_min":11,"x_max":308,"o":"m 115 0 l 11 0 l 204 1038 l 308 1038 l 115 0 z "},":":{"ha":190,"x_min":28,"x_max":163,"o":"m 28 114 l 163 114 l 163 0 l 28 0 l 28 114 m 28 442 l 163 442 l 163 328 l 28 328 l 28 442 z "},";":{"ha":190,"x_min":28,"x_max":163,"o":"m 28 442 l 163 442 l 163 328 l 28 328 l 28 442 m 28 114 l 163 114 l 163 13 q 152 -37 163 -15 q 114 -83 142 -60 l 28 -158 l 28 -53 l 104 0 l 28 0 l 28 114 z "},"<":{"ha":278,"x_min":28,"x_max":250,"o":"m 28 496 l 250 635 l 250 531 l 119 450 l 250 399 l 250 281 l 28 406 l 28 496 z "},"=":{"ha":431,"x_min":69,"x_max":361,"o":"m 69 565 l 361 565 l 361 475 l 69 475 l 69 565 m 69 425 l 361 425 l 361 335 l 69 335 l 69 425 z "},">":{"ha":278,"x_min":28,"x_max":250,"o":"m 250 406 l 28 281 l 28 399 l 158 450 l 28 531 l 28 635 l 250 496 l 250 406 z "},"?":{"ha":376,"x_min":11,"x_max":365,"o":"m 11 678 l 11 961 q 33 1014 11 992 q 86 1036 54 1036 l 289 1036 q 343 1014 321 1036 q 365 961 365 992 l 365 776 q 356 671 365 715 q 331 590 346 626 q 300 520 317 553 q 269 449 283 488 q 244 364 254 411 q 235 251 235 317 l 235 163 l 104 163 l 104 251 q 122 416 104 349 q 160 538 139 483 q 198 645 181 593 q 215 765 215 697 l 215 925 l 163 925 l 163 678 l 11 678 m 99 114 l 239 114 l 239 0 l 99 0 l 99 114 z "},"@":{"ha":739,"x_min":21,"x_max":718,"o":"m 718 74 q 697 22 718 43 q 644 0 676 0 l 268 0 q 214 22 236 0 q 192 76 192 44 l 192 631 q 214 684 192 663 q 267 706 236 706 l 397 706 l 397 767 l 214 767 l 214 878 l 474 878 q 525 856 503 878 q 547 803 547 833 l 547 111 l 568 111 l 568 899 l 171 899 l 171 -21 l 718 -21 l 718 -132 l 94 -132 q 42 -110 64 -132 q 21 -58 21 -89 l 21 936 q 42 988 21 967 q 94 1010 64 1010 l 644 1010 q 697 988 676 1010 q 718 936 718 967 l 718 74 m 397 594 l 342 594 l 342 114 l 397 114 l 397 594 z "},"A":{"ha":424,"x_min":7,"x_max":417,"o":"m 269 0 l 253 240 l 169 240 l 154 0 l 7 0 l 117 1036 l 306 1036 l 417 0 l 269 0 m 176 351 l 246 351 l 211 878 l 176 351 z "},"B":{"ha":378,"x_min":11,"x_max":367,"o":"m 11 1036 l 292 1036 q 345 1015 324 1036 q 367 961 367 993 l 367 631 q 347 579 367 600 q 297 556 326 558 q 347 531 326 553 q 367 481 367 510 l 367 75 q 345 22 367 43 q 292 0 324 0 l 11 0 l 11 1036 m 161 500 l 161 114 l 217 114 l 217 500 l 161 500 m 163 925 l 163 611 l 217 611 l 217 925 l 163 925 z "},"C":{"ha":307,"x_min":11,"x_max":296,"o":"m 296 922 l 161 922 l 161 114 l 296 114 l 296 0 l 85 0 q 32 21 53 0 q 11 74 11 42 l 11 961 q 32 1014 11 992 q 85 1036 53 1036 l 296 1036 l 296 922 z "},"D":{"ha":378,"x_min":11,"x_max":367,"o":"m 367 72 q 346 21 367 42 q 294 0 325 0 l 11 0 l 11 1036 l 290 1036 q 344 1015 322 1036 q 367 961 367 993 l 367 72 m 163 925 l 163 114 l 217 114 l 217 925 l 163 925 z "},"E":{"ha":378,"x_min":11,"x_max":367,"o":"m 163 706 l 318 706 l 318 594 l 163 594 l 163 114 l 367 114 l 367 0 l 11 0 l 11 1036 l 367 1036 l 367 925 l 163 925 l 163 706 z "},"F":{"ha":374,"x_min":11,"x_max":367,"o":"m 163 706 l 318 706 l 318 594 l 163 594 l 163 0 l 11 0 l 11 1036 l 367 1036 l 367 925 l 163 925 l 163 706 z "},"G":{"ha":378,"x_min":11,"x_max":367,"o":"m 367 878 l 367 75 q 345 22 367 43 q 292 0 324 0 l 86 0 q 33 22 54 0 q 11 75 11 43 l 11 961 q 33 1015 11 993 q 86 1036 54 1036 l 367 1036 l 367 925 l 163 925 l 163 114 l 217 114 l 217 878 l 367 878 z "},"H":{"ha":378,"x_min":11,"x_max":367,"o":"m 163 0 l 11 0 l 11 1036 l 163 1036 l 163 706 l 217 706 l 217 1036 l 367 1036 l 367 0 l 217 0 l 217 594 l 163 594 l 163 0 z "},"I":{"ha":174,"x_min":11,"x_max":163,"o":"m 163 0 l 11 0 l 11 1036 l 163 1036 l 163 0 z "},"J":{"ha":324,"x_min":7,"x_max":313,"o":"m 313 75 q 291 22 313 43 q 238 0 269 0 l 7 0 l 7 114 l 161 114 l 161 1036 l 313 1036 l 313 75 z "},"K":{"ha":406,"x_min":11,"x_max":406,"o":"m 304 704 q 353 684 332 704 q 374 636 374 664 l 374 0 l 226 0 l 226 594 l 163 594 l 163 0 l 11 0 l 11 1036 l 163 1036 l 163 718 l 240 1036 l 406 1036 l 263 704 l 304 704 z "},"L":{"ha":324,"x_min":11,"x_max":317,"o":"m 163 1036 l 163 114 l 317 114 l 317 0 l 11 0 l 11 1036 l 163 1036 z "},"M":{"ha":554,"x_min":11,"x_max":543,"o":"m 397 0 l 397 599 l 326 0 l 228 0 l 157 599 l 157 0 l 11 0 l 11 1036 l 190 1036 l 276 481 l 364 1036 l 543 1036 l 543 0 l 397 0 z "},"N":{"ha":414,"x_min":11,"x_max":403,"o":"m 403 1036 l 403 0 l 256 0 l 157 585 l 157 0 l 11 0 l 11 1036 l 169 1036 l 257 585 l 257 1036 l 403 1036 z "},"O":{"ha":376,"x_min":11,"x_max":365,"o":"m 289 1038 q 343 1015 321 1038 q 365 963 365 993 l 365 74 q 343 21 365 42 q 289 0 321 0 l 85 0 q 32 21 53 0 q 11 74 11 42 l 11 963 q 32 1015 11 993 q 85 1038 53 1038 l 289 1038 m 215 925 l 161 925 l 161 114 l 215 114 l 215 925 z "},"P":{"ha":378,"x_min":11,"x_max":367,"o":"m 367 314 q 349 263 367 283 q 300 242 331 242 l 163 242 l 163 0 l 11 0 l 11 1036 l 290 1036 q 344 1015 322 1036 q 367 961 367 993 l 367 314 m 163 925 l 163 351 l 217 351 l 217 925 l 163 925 z "},"Q":{"ha":376,"x_min":11,"x_max":365,"o":"m 131 0 l 85 0 q 32 21 53 0 q 11 74 11 42 l 11 963 q 32 1015 11 993 q 85 1038 53 1038 l 289 1038 q 343 1015 321 1038 q 365 963 365 993 l 365 74 q 343 21 365 42 q 289 0 321 0 l 240 0 l 261 -122 l 111 -122 l 131 0 m 215 925 l 161 925 l 161 114 l 215 114 l 215 925 z "},"R":{"ha":378,"x_min":11,"x_max":367,"o":"m 11 1036 l 292 1036 q 345 1015 324 1036 q 367 961 367 993 l 367 632 q 347 581 367 601 q 300 557 328 560 q 347 532 328 554 q 367 482 367 510 l 367 0 l 217 0 l 217 501 l 163 501 l 163 0 l 11 0 l 11 1036 m 163 925 l 163 613 l 217 613 l 217 925 l 163 925 z "},"S":{"ha":376,"x_min":11,"x_max":365,"o":"m 215 789 l 215 925 l 161 925 l 161 888 q 193 742 161 819 q 263 578 225 664 q 333 400 301 493 q 365 210 365 307 l 365 74 q 344 21 365 42 q 290 0 322 0 l 88 0 q 34 21 56 0 q 13 74 13 42 l 13 351 l 161 351 l 161 114 l 215 114 l 215 210 q 183 393 215 307 q 113 560 151 479 q 43 724 75 642 q 11 899 11 807 l 11 961 q 33 1014 11 992 q 88 1036 56 1036 l 290 1036 q 344 1014 322 1036 q 365 961 365 992 l 365 789 l 215 789 z "},"T":{"ha":406,"x_min":11,"x_max":394,"o":"m 11 1036 l 394 1036 l 394 925 l 278 925 l 278 0 l 128 0 l 128 925 l 11 925 l 11 1036 z "},"U":{"ha":376,"x_min":11,"x_max":365,"o":"m 161 114 l 215 114 l 161 114 m 365 1036 l 365 74 q 343 21 365 42 q 289 0 321 0 l 85 0 q 32 21 53 0 q 11 74 11 42 l 11 1036 l 161 1036 l 161 114 l 215 114 l 215 1036 l 365 1036 z "},"V":{"ha":424,"x_min":7,"x_max":417,"o":"m 417 1036 l 306 0 l 117 0 l 7 1036 l 154 1036 l 211 256 l 269 1036 l 417 1036 z "},"W":{"ha":657,"x_min":7,"x_max":650,"o":"m 650 1036 l 563 0 l 378 0 l 328 625 l 279 0 l 93 0 l 7 1036 l 168 1036 l 186 394 l 257 1036 l 400 1036 l 469 394 l 489 1036 l 650 1036 z "},"X":{"ha":429,"x_min":0,"x_max":429,"o":"m 265 0 l 215 489 l 164 0 l 0 0 l 99 669 l 18 1036 l 185 1036 l 215 758 l 244 1036 l 411 1036 l 333 669 l 429 0 l 265 0 z "},"Y":{"ha":479,"x_min":7,"x_max":472,"o":"m 472 1036 l 314 307 l 314 0 l 164 0 l 164 307 l 7 1036 l 168 1036 l 239 549 l 311 1036 l 472 1036 z "},"Z":{"ha":406,"x_min":11,"x_max":394,"o":"m 24 1036 l 376 1036 l 376 925 q 361 838 376 896 q 322 704 346 779 q 272 546 299 629 q 222 382 246 463 q 183 231 199 301 q 168 114 168 161 l 394 114 l 394 0 l 11 0 l 11 114 q 27 231 11 161 q 66 382 43 301 q 117 546 89 463 q 167 704 144 629 q 206 838 190 779 q 222 925 222 896 l 24 925 l 24 1036 z "},"[":{"ha":307,"x_min":11,"x_max":296,"o":"m 296 1085 l 133 1085 l 133 -46 l 296 -46 l 296 -158 l 85 -158 q 32 -137 53 -158 q 11 -85 11 -117 l 11 1122 q 32 1175 11 1153 q 85 1197 53 1197 l 296 1197 l 296 1085 z "},"\\":{"ha":319,"x_min":11,"x_max":308,"o":"m 11 1038 l 115 1038 l 308 0 l 204 0 l 11 1038 z "},"]":{"ha":307,"x_min":11,"x_max":296,"o":"m 11 1197 l 222 1197 q 275 1175 254 1197 q 296 1122 296 1153 l 296 -85 q 275 -137 296 -117 q 222 -158 254 -158 l 11 -158 l 11 -46 l 174 -46 l 174 1085 l 11 1085 l 11 1197 z "},"^":{"ha":283,"x_min":28,"x_max":256,"o":"m 142 1146 l 121 1064 l 28 1064 l 82 1194 l 201 1194 l 256 1064 l 163 1064 l 142 1146 z "},"_":{"ha":581,"x_min":11,"x_max":569,"o":"m 11 -47 l 569 -47 l 569 -158 l 11 -158 l 11 -47 z "},"`":{"ha":236,"x_min":11,"x_max":225,"o":"m 11 1194 l 158 1194 l 225 1064 l 146 1064 l 11 1194 z "},"a":{"ha":378,"x_min":11,"x_max":367,"o":"m 293 878 q 344 856 322 878 q 367 803 367 833 l 367 0 l 88 0 q 33 21 56 0 q 11 74 11 42 l 11 631 q 33 684 11 663 q 88 706 56 706 l 217 706 l 217 767 l 33 767 l 33 878 l 293 878 m 217 594 l 161 594 l 161 114 l 217 114 l 217 594 z "},"b":{"ha":378,"x_min":11,"x_max":367,"o":"m 367 74 q 344 21 367 42 q 290 0 322 0 l 11 0 l 11 1036 l 163 1036 l 163 878 l 294 878 q 346 856 325 878 q 367 806 367 835 l 367 74 m 217 114 l 217 767 l 163 767 l 163 114 l 217 114 z "},"c":{"ha":243,"x_min":11,"x_max":232,"o":"m 232 767 l 161 767 l 161 114 l 232 114 l 232 0 l 85 0 q 32 21 53 0 q 11 74 11 42 l 11 803 q 32 856 11 833 q 85 878 53 878 l 232 878 l 232 767 z "},"d":{"ha":378,"x_min":11,"x_max":367,"o":"m 11 806 q 32 856 11 835 q 83 878 53 878 l 215 878 l 215 1036 l 367 1036 l 367 0 l 88 0 q 33 21 56 0 q 11 74 11 42 l 11 806 m 215 114 l 215 767 l 161 767 l 161 114 l 215 114 z "},"e":{"ha":376,"x_min":11,"x_max":365,"o":"m 161 385 l 161 114 l 215 114 l 215 351 l 365 351 l 365 74 q 343 21 365 42 q 289 0 321 0 l 85 0 q 32 21 53 0 q 11 74 11 42 l 11 803 q 32 856 11 833 q 85 878 53 878 l 289 878 q 343 856 321 878 q 365 803 365 833 l 365 385 l 161 385 m 161 488 l 215 488 l 215 767 l 161 767 l 161 488 z "},"f":{"ha":288,"x_min":11,"x_max":276,"o":"m 161 0 l 11 0 l 11 961 q 32 1014 11 992 q 85 1036 53 1036 l 276 1036 l 276 926 l 161 926 l 161 878 l 276 878 l 276 767 l 161 767 l 161 0 z "},"g":{"ha":376,"x_min":11,"x_max":365,"o":"m 365 878 l 365 -83 q 341 -137 363 -115 q 289 -158 319 -158 l 11 -158 l 11 -46 l 214 -46 l 214 0 l 85 0 q 32 21 53 0 q 11 74 11 42 l 11 803 q 32 856 11 833 q 85 878 53 878 l 365 878 m 214 114 l 214 767 l 161 767 l 161 114 l 214 114 z "},"h":{"ha":378,"x_min":11,"x_max":367,"o":"m 367 0 l 217 0 l 217 767 l 163 767 l 163 0 l 11 0 l 11 1036 l 163 1036 l 163 878 l 294 878 q 346 856 325 878 q 367 806 367 835 l 367 0 z "},"i":{"ha":174,"x_min":11,"x_max":163,"o":"m 11 0 l 11 878 l 163 878 l 163 0 l 11 0 m 11 926 l 11 1036 l 163 1036 l 163 926 l 11 926 z "},"j":{"ha":175,"x_min":-58,"x_max":164,"o":"m 164 -83 q 142 -137 164 -115 q 89 -158 121 -158 l -58 -158 l -58 -49 l 13 -49 l 13 878 l 164 878 l 164 -83 m 13 926 l 13 1036 l 164 1036 l 164 926 l 13 926 z "},"k":{"ha":407,"x_min":11,"x_max":413,"o":"m 304 704 q 353 684 332 704 q 374 636 374 664 l 374 0 l 226 0 l 226 594 l 163 594 l 163 0 l 11 0 l 11 1036 l 163 1036 l 163 718 l 233 878 l 413 878 l 263 704 l 304 704 z "},"l":{"ha":174,"x_min":11,"x_max":163,"o":"m 11 1036 l 163 1036 l 163 0 l 11 0 l 11 1036 z "},"m":{"ha":581,"x_min":11,"x_max":569,"o":"m 494 878 q 548 856 526 878 q 569 803 569 835 l 569 0 l 419 0 l 419 767 l 365 767 l 365 0 l 215 0 l 215 767 l 161 767 l 161 0 l 11 0 l 11 803 q 33 856 11 835 q 86 878 54 878 l 215 878 q 269 856 247 878 q 290 803 290 835 q 312 856 290 835 q 365 878 333 878 l 494 878 l 494 878 z "},"n":{"ha":376,"x_min":11,"x_max":365,"o":"m 215 767 l 161 767 l 215 767 m 11 0 l 11 878 l 290 878 q 344 856 322 878 q 365 803 365 835 l 365 0 l 215 0 l 215 767 l 161 767 l 161 0 l 11 0 z "},"o":{"ha":376,"x_min":11,"x_max":365,"o":"m 289 878 q 343 856 321 878 q 365 803 365 833 l 365 74 q 343 21 365 42 q 289 0 321 0 l 85 0 q 32 21 53 0 q 11 74 11 42 l 11 803 q 32 856 11 833 q 85 878 53 878 l 289 878 m 215 767 l 161 767 l 161 114 l 215 114 l 215 767 z "},"p":{"ha":378,"x_min":11,"x_max":367,"o":"m 367 72 q 346 21 367 42 q 294 0 325 0 l 163 0 l 163 -158 l 11 -158 l 11 878 l 290 878 q 344 856 322 878 q 367 803 367 835 l 367 72 m 163 767 l 163 114 l 217 114 l 217 767 l 163 767 z "},"q":{"ha":378,"x_min":11,"x_max":367,"o":"m 11 803 q 33 856 11 835 q 88 878 56 878 l 367 878 l 367 -158 l 215 -158 l 215 0 l 83 0 q 32 21 53 0 q 11 72 11 42 l 11 803 m 161 767 l 161 114 l 215 114 l 215 767 l 161 767 z "},"r":{"ha":243,"x_min":11,"x_max":232,"o":"m 161 0 l 11 0 l 11 803 q 32 856 11 833 q 85 878 53 878 l 232 878 l 232 767 l 161 767 l 161 0 z "},"s":{"ha":376,"x_min":11,"x_max":365,"o":"m 215 631 l 215 767 l 161 767 l 161 729 q 176 646 161 683 q 214 572 192 608 q 263 499 236 536 q 313 420 290 463 q 350 326 335 378 q 365 210 365 275 l 365 74 q 344 21 365 42 q 290 0 322 0 l 88 0 q 34 21 56 0 q 13 74 13 42 l 13 351 l 161 351 l 161 114 l 215 114 l 215 210 q 200 323 215 275 q 163 409 185 371 q 113 481 140 447 q 64 552 86 515 q 26 634 42 589 q 11 740 11 679 l 11 803 q 33 856 11 833 q 88 878 56 878 l 290 878 q 344 856 322 878 q 365 803 365 833 l 365 631 l 215 631 z "},"t":{"ha":289,"x_min":11,"x_max":278,"o":"m 161 767 l 161 114 l 278 114 l 278 0 l 88 0 q 33 21 56 0 q 11 74 11 42 l 11 1036 l 161 1036 l 161 878 l 278 878 l 278 767 l 161 767 z "},"u":{"ha":376,"x_min":11,"x_max":365,"o":"m 161 114 l 215 114 l 161 114 m 365 878 l 365 74 q 343 21 365 42 q 289 0 321 0 l 85 0 q 32 21 53 0 q 11 74 11 42 l 11 878 l 161 878 l 161 114 l 215 114 l 215 878 l 365 878 z "},"v":{"ha":389,"x_min":7,"x_max":382,"o":"m 221 878 l 382 878 l 288 0 l 101 0 l 7 878 l 168 878 l 194 394 l 221 878 z "},"w":{"ha":581,"x_min":11,"x_max":569,"o":"m 365 0 q 312 22 333 0 q 290 75 290 43 q 269 22 290 43 q 215 0 247 0 l 86 0 q 33 22 54 0 q 11 75 11 43 l 11 878 l 161 878 l 161 114 l 215 114 l 215 878 l 365 878 l 365 114 l 419 114 l 419 878 l 569 878 l 569 75 q 548 22 569 43 q 494 0 526 0 l 365 0 z "},"x":{"ha":421,"x_min":0,"x_max":421,"o":"m 257 0 l 211 386 l 164 0 l 0 0 l 94 571 l 18 878 l 185 878 l 211 656 l 236 878 l 403 878 l 329 571 l 421 0 l 257 0 z "},"y":{"ha":374,"x_min":11,"x_max":363,"o":"m 214 878 l 363 878 l 363 -83 q 341 -137 363 -115 q 288 -158 319 -158 l 11 -158 l 11 -46 l 214 -46 l 214 0 l 85 0 q 32 21 53 0 q 11 74 11 42 l 11 878 l 160 878 l 160 114 l 214 114 l 214 878 z "},"z":{"ha":376,"x_min":11,"x_max":365,"o":"m 24 878 l 347 878 l 347 767 q 319 656 347 722 q 256 514 290 590 q 194 358 222 438 q 165 208 165 279 l 165 114 l 217 114 l 217 351 l 365 351 l 365 0 l 11 0 l 11 208 q 25 307 11 256 q 59 410 39 358 q 103 514 79 463 q 148 612 128 565 q 182 698 168 658 q 196 767 196 738 l 24 767 l 24 878 z "},"{":{"ha":382,"x_min":11,"x_max":371,"o":"m 86 574 l 86 1122 q 107 1175 86 1153 q 160 1197 128 1197 l 371 1197 l 371 1085 l 208 1085 l 208 589 q 188 541 208 561 q 140 519 168 521 q 188 497 168 517 q 208 449 208 476 l 208 -46 l 371 -46 l 371 -158 l 160 -158 q 107 -137 128 -158 q 86 -85 86 -117 l 86 463 l 11 463 l 11 574 l 86 574 z "},"|":{"ha":261,"x_min":69,"x_max":192,"o":"m 192 1197 l 192 -158 l 69 -158 l 69 1197 l 192 1197 z "},"}":{"ha":382,"x_min":11,"x_max":371,"o":"m 371 574 l 371 463 l 296 463 l 296 -85 q 275 -137 296 -117 q 222 -158 254 -158 l 11 -158 l 11 -46 l 174 -46 l 174 449 q 194 497 174 476 q 242 519 214 517 q 194 541 214 521 q 174 589 174 561 l 174 1085 l 11 1085 l 11 1197 l 222 1197 q 275 1175 254 1197 q 296 1122 296 1153 l 296 574 l 371 574 z "},"~":{"ha":415,"x_min":28,"x_max":388,"o":"m 156 400 q 148 394 151 400 q 144 356 144 388 l 28 356 l 28 418 q 47 490 28 460 q 113 519 67 519 q 155 514 133 519 q 196 501 176 508 q 231 489 215 494 q 257 483 247 483 q 264 490 261 483 q 267 529 267 497 l 388 529 l 388 456 q 367 392 388 418 q 303 365 347 365 q 258 371 281 365 q 215 383 235 376 q 178 394 194 389 q 156 400 163 400 z "},"¡":{"ha":232,"x_min":28,"x_max":204,"o":"m 28 -6 q 31 142 29 67 q 36 293 33 218 q 41 440 39 368 q 46 575 43 511 q 57 868 51 725 l 181 868 q 190 575 185 725 q 194 440 192 511 q 198 293 196 368 q 201 142 200 218 q 204 -6 203 67 l 28 -6 m 189 917 l 49 917 l 49 1031 l 189 1031 l 189 917 z "},"¢":{"ha":303,"x_min":28,"x_max":275,"o":"m 203 0 l 101 0 q 49 21 69 0 q 28 74 28 42 l 28 803 q 49 856 28 833 q 101 878 69 878 l 203 878 l 203 947 l 231 947 l 231 878 l 275 878 l 275 767 l 231 767 l 231 114 l 275 114 l 275 0 l 231 0 l 231 -69 l 203 -69 l 203 0 m 178 114 l 203 114 l 203 767 l 178 767 l 178 114 z "},"£":{"ha":453,"x_min":11,"x_max":425,"o":"m 11 531 l 71 531 l 71 961 q 93 1014 71 992 q 147 1036 115 1036 l 350 1036 q 403 1014 382 1036 q 425 961 425 992 l 425 789 l 275 789 l 275 925 l 222 925 l 222 531 l 357 531 l 357 419 l 222 419 l 222 379 q 221 317 222 347 q 217 256 219 288 q 211 190 215 225 q 199 114 207 156 l 424 114 l 424 0 l 24 0 q 62 220 53 121 q 71 419 71 319 l 11 419 l 11 531 z "},"¥":{"ha":479,"x_min":7,"x_max":472,"o":"m 93 307 l 164 307 l 7 1036 l 168 1036 l 239 549 l 311 1036 l 472 1036 l 314 307 l 385 307 l 385 217 l 314 217 l 314 181 l 385 181 l 385 90 l 314 90 l 314 0 l 164 0 l 164 90 l 93 90 l 93 181 l 164 181 l 164 217 l 93 217 l 93 307 z "},"¦":{"ha":144,"x_min":11,"x_max":133,"o":"m 11 451 l 133 451 l 133 0 l 11 0 l 11 451 m 11 1038 l 133 1038 l 133 586 l 11 586 l 11 1038 z "},"§":{"ha":450,"x_min":28,"x_max":422,"o":"m 389 472 q 413 414 404 442 q 422 360 422 386 q 403 291 422 324 q 340 231 385 258 q 385 121 368 176 q 401 3 401 65 l 401 -85 q 380 -137 401 -117 q 326 -158 358 -158 l 124 -158 q 70 -137 92 -158 q 49 -85 49 -117 l 49 89 l 197 89 l 197 -44 l 251 -44 l 251 3 q 230 122 251 69 q 179 222 208 174 q 158 253 172 233 q 128 297 144 272 q 93 350 111 322 q 61 407 75 378 q 37 464 46 436 q 28 518 28 492 q 47 587 28 554 q 110 647 65 619 q 65 757 82 701 q 49 875 49 813 l 49 963 q 70 1015 49 994 q 124 1036 92 1036 l 326 1036 q 380 1015 358 1036 q 401 963 401 994 l 401 789 l 253 789 l 253 922 l 199 922 l 199 875 q 220 757 199 808 q 271 657 242 706 q 292 626 278 646 q 322 582 306 607 q 356 529 339 557 q 389 472 374 501 m 294 363 q 212 482 251 426 q 139 594 172 538 q 135 576 135 586 q 142 547 135 561 q 156 517 149 532 q 237 397 197 451 q 310 285 276 342 q 315 303 315 290 q 308 333 315 318 q 294 363 301 347 z "},"¨":{"ha":251,"x_min":11,"x_max":240,"o":"m 11 1064 l 11 1174 l 107 1174 l 107 1064 l 11 1064 m 144 1064 l 144 1174 l 240 1174 l 240 1064 l 144 1064 z "},"©":{"ha":682,"x_min":28,"x_max":654,"o":"m 483 789 l 349 789 l 349 246 l 483 246 l 483 132 l 272 132 q 219 153 240 132 q 199 206 199 174 l 199 828 q 219 881 199 858 q 272 903 240 903 l 483 903 l 483 789 m 581 1035 q 633 1013 613 1035 q 654 961 654 992 l 654 74 q 633 22 654 43 q 581 0 611 0 l 101 0 q 49 22 69 0 q 28 74 28 43 l 28 961 q 49 1013 28 992 q 101 1035 69 1035 l 581 1035 m 504 111 l 504 924 l 178 924 l 178 111 l 504 111 z "},"ª":{"ha":232,"x_min":11,"x_max":221,"o":"m 176 1036 q 208 1023 194 1036 q 221 992 221 1010 l 221 519 l 57 519 q 24 532 38 519 q 11 564 11 544 l 11 890 q 24 922 11 910 q 57 935 38 935 l 132 935 l 132 971 l 25 971 l 25 1036 l 176 1036 m 132 869 l 99 869 l 99 586 l 132 586 l 132 869 z "},"«":{"ha":556,"x_min":28,"x_max":528,"o":"m 28 496 l 264 711 l 264 575 l 119 450 l 264 354 l 264 204 l 28 406 l 28 496 m 292 496 l 528 711 l 528 575 l 383 450 l 528 354 l 528 204 l 292 406 l 292 496 z "},"­":{"ha":285,"x_min":28,"x_max":257,"o":"m 28 500 l 257 500 l 257 389 l 28 389 l 28 500 z "},"®":{"ha":661,"x_min":28,"x_max":633,"o":"m 560 1035 q 613 1013 592 1035 q 633 961 633 992 l 633 74 q 612 22 633 43 q 560 0 590 0 l 101 0 q 49 22 69 0 q 28 74 28 43 l 28 961 q 49 1013 28 992 q 101 1035 69 1035 l 560 1035 m 483 111 l 483 924 l 178 924 l 178 111 l 483 111 m 199 903 l 407 903 q 447 887 431 903 q 463 847 463 871 l 463 601 q 449 564 463 579 q 414 546 435 549 q 449 527 435 543 q 463 490 463 511 l 463 132 l 351 132 l 351 506 l 311 506 l 311 132 l 199 132 l 199 903 m 311 819 l 311 588 l 351 588 l 351 819 l 311 819 z "},"°":{"ha":394,"x_min":28,"x_max":367,"o":"m 28 864 q 41 930 28 899 q 77 985 54 961 q 131 1022 100 1008 q 197 1035 163 1035 q 263 1022 232 1035 q 317 985 294 1008 q 353 930 340 961 q 367 864 367 899 q 353 799 367 829 q 317 745 340 768 q 263 709 294 722 q 197 696 232 696 q 131 709 163 696 q 77 745 100 722 q 41 799 54 768 q 28 864 28 829 m 100 864 q 128 796 100 824 q 197 768 157 768 q 266 796 238 768 q 294 864 294 824 q 266 933 294 904 q 197 963 238 963 q 128 933 157 963 q 100 864 100 904 z "},"±":{"ha":431,"x_min":69,"x_max":361,"o":"m 261 600 l 261 500 l 361 500 l 361 410 l 261 410 l 261 308 l 171 308 l 171 410 l 69 410 l 69 500 l 171 500 l 171 600 l 261 600 m 69 250 l 361 250 l 361 160 l 69 160 l 69 250 z "},"²":{"ha":206,"x_min":11,"x_max":194,"o":"m 119 700 l 194 700 l 194 519 l 11 519 l 11 599 q 27 686 11 647 q 63 765 43 725 q 98 851 82 804 q 114 961 114 897 l 114 981 l 86 981 l 86 913 l 11 913 l 11 999 q 22 1025 11 1014 q 49 1036 33 1036 l 150 1036 q 176 1025 165 1036 q 188 999 188 1014 l 188 967 q 172 853 188 900 q 137 765 156 806 q 102 686 118 725 q 86 599 86 647 l 86 576 l 119 576 l 119 700 z "},"³":{"ha":199,"x_min":11,"x_max":188,"o":"m 51 768 l 51 824 l 113 824 l 113 981 l 86 981 l 86 913 l 11 913 l 11 999 q 22 1025 11 1014 q 49 1036 33 1036 l 150 1036 q 176 1026 165 1036 q 188 999 186 1015 l 188 833 q 178 808 188 818 q 154 796 169 799 q 178 784 169 794 q 188 758 188 774 l 188 557 q 177 531 188 542 q 150 519 167 521 l 49 519 q 22 531 33 519 q 11 557 11 542 l 11 700 l 86 700 l 86 575 l 113 575 l 113 768 l 51 768 z "},"´":{"ha":236,"x_min":11,"x_max":225,"o":"m 90 1064 l 11 1064 l 78 1194 l 225 1194 l 90 1064 z "},"µ":{"ha":376,"x_min":11,"x_max":365,"o":"m 161 111 l 215 111 l 161 111 m 365 878 l 365 0 l 161 0 l 161 -158 l 11 -158 l 11 878 l 161 878 l 161 111 l 215 111 l 215 878 l 365 878 z "},"¶":{"ha":499,"x_min":11,"x_max":488,"o":"m 488 1036 l 488 926 l 433 926 l 433 0 l 314 0 l 314 926 l 281 926 l 281 0 l 161 0 l 161 542 l 78 542 q 29 563 47 542 q 11 614 11 583 l 11 961 q 33 1015 11 993 q 88 1036 56 1036 l 488 1036 z "},"·":{"ha":190,"x_min":28,"x_max":163,"o":"m 28 597 l 163 597 l 163 483 l 28 483 l 28 597 z "},"¸":{"ha":215,"x_min":28,"x_max":188,"o":"m 126 0 l 126 -19 q 173 -42 158 -22 q 188 -85 188 -61 q 166 -137 188 -112 q 103 -161 144 -161 q 28 -142 68 -161 l 28 -74 q 62 -89 47 -85 q 86 -93 76 -93 q 102 -87 97 -93 q 107 -75 107 -82 q 85 -54 107 -58 q 54 -26 54 -49 q 61 -9 54 -17 q 83 0 68 -1 l 126 0 z "},"¹":{"ha":138,"x_min":11,"x_max":126,"o":"m 50 981 l 11 981 l 11 1036 l 126 1036 l 126 519 l 50 519 l 50 981 z "},"»":{"ha":556,"x_min":28,"x_max":528,"o":"m 528 406 l 292 204 l 292 354 l 436 450 l 292 575 l 292 711 l 528 496 l 528 406 m 264 406 l 28 204 l 28 354 l 172 450 l 28 575 l 28 711 l 264 496 l 264 406 z "},"¼":{"ha":422,"x_min":11,"x_max":411,"o":"m 54 981 l 15 981 l 15 1036 l 129 1036 l 129 519 l 54 519 l 54 981 m 314 85 l 196 85 l 290 517 l 388 517 l 388 142 l 411 142 l 411 85 l 388 85 l 388 0 l 314 0 l 314 85 m 314 142 l 314 403 l 286 142 l 314 142 m 78 0 l 11 0 l 317 1038 l 383 1038 l 78 0 z "},"½":{"ha":444,"x_min":11,"x_max":433,"o":"m 358 181 l 433 181 l 433 0 l 250 0 l 250 79 q 266 167 250 128 q 301 245 282 206 q 337 331 321 285 q 353 442 353 378 l 353 461 l 325 461 l 325 393 l 250 393 l 250 479 q 261 506 250 494 q 288 517 272 517 l 389 517 q 415 506 404 517 q 426 479 426 494 l 426 447 q 410 333 426 381 q 376 246 394 286 q 341 167 357 206 q 325 79 325 128 l 325 57 l 358 57 l 358 181 m 78 0 l 11 0 l 317 1038 l 383 1038 l 78 0 m 54 981 l 15 981 l 15 1036 l 129 1036 l 129 519 l 54 519 l 54 981 z "},"¾":{"ha":468,"x_min":11,"x_max":457,"o":"m 51 768 l 51 824 l 113 824 l 113 981 l 86 981 l 86 913 l 11 913 l 11 999 q 22 1025 11 1014 q 49 1036 33 1036 l 150 1036 q 176 1026 165 1036 q 188 999 186 1015 l 188 833 q 178 808 188 818 q 154 796 169 799 q 178 784 169 794 q 188 758 188 774 l 188 557 q 177 531 188 542 q 150 519 167 521 l 49 519 q 22 531 33 519 q 11 557 11 542 l 11 700 l 86 700 l 86 575 l 113 575 l 113 768 l 51 768 m 360 85 l 242 85 l 336 517 l 433 517 l 433 142 l 457 142 l 457 85 l 433 85 l 433 0 l 360 0 l 360 85 m 360 142 l 360 403 l 332 142 l 360 142 m 124 0 l 57 0 l 363 1038 l 429 1038 l 124 0 z "},"¿":{"ha":376,"x_min":11,"x_max":365,"o":"m 365 358 l 365 75 q 344 22 365 44 q 290 0 322 0 l 88 0 q 33 22 56 0 q 11 75 11 44 l 11 260 q 21 365 11 321 q 45 447 31 410 q 76 516 60 483 q 108 587 93 549 q 132 672 122 625 q 142 785 142 719 l 142 874 l 272 874 l 272 785 q 255 619 272 686 q 217 498 238 553 q 178 391 196 443 q 161 271 161 339 l 161 111 l 214 111 l 214 358 l 365 358 m 278 922 l 138 922 l 138 1036 l 278 1036 l 278 922 z "},"À":{"ha":424,"x_min":7,"x_max":417,"o":"m 40 1194 l 188 1194 l 254 1064 l 175 1064 l 40 1194 m 269 0 l 253 240 l 169 240 l 154 0 l 7 0 l 117 1036 l 306 1036 l 417 0 l 269 0 m 176 351 l 246 351 l 211 878 l 176 351 z "},"Á":{"ha":424,"x_min":7,"x_max":417,"o":"m 246 1064 l 167 1064 l 233 1194 l 381 1194 l 246 1064 m 269 0 l 253 240 l 169 240 l 154 0 l 7 0 l 117 1036 l 306 1036 l 417 0 l 269 0 m 176 351 l 246 351 l 211 878 l 176 351 z "},"Â":{"ha":424,"x_min":7,"x_max":417,"o":"m 211 1146 l 190 1064 l 97 1064 l 151 1194 l 271 1194 l 325 1064 l 232 1064 l 211 1146 m 269 0 l 253 240 l 169 240 l 154 0 l 7 0 l 117 1036 l 306 1036 l 417 0 l 269 0 m 176 351 l 246 351 l 211 878 l 176 351 z "},"Ã":{"ha":424,"x_min":7,"x_max":417,"o":"m 172 1097 q 167 1092 169 1097 q 164 1064 164 1088 l 76 1064 l 76 1111 q 91 1165 76 1143 q 140 1188 106 1188 q 172 1183 156 1188 q 203 1174 188 1179 q 230 1164 218 1168 q 249 1160 242 1160 q 254 1165 251 1160 q 257 1194 257 1171 l 347 1194 l 347 1139 q 332 1092 347 1111 q 283 1072 317 1072 q 249 1076 267 1072 q 217 1085 232 1081 q 190 1093 201 1089 q 172 1097 178 1097 m 417 0 l 306 1036 l 117 1036 l 7 0 l 154 0 l 169 240 l 253 240 l 269 0 l 417 0 m 211 878 l 246 351 l 176 351 l 211 878 z "},"Ä":{"ha":424,"x_min":7,"x_max":417,"o":"m 93 1064 l 93 1174 l 189 1174 l 189 1064 l 93 1064 m 226 1064 l 226 1174 l 322 1174 l 322 1064 l 226 1064 m 269 0 l 253 240 l 169 240 l 154 0 l 7 0 l 117 1036 l 306 1036 l 417 0 l 269 0 m 176 351 l 246 351 l 211 878 l 176 351 z "},"Å":{"ha":424,"x_min":7,"x_max":417,"o":"m 131 1144 q 154 1201 131 1178 q 211 1224 178 1224 q 267 1201 244 1224 q 290 1144 290 1178 q 267 1088 290 1111 q 211 1064 244 1064 q 154 1088 178 1064 q 131 1144 131 1111 m 178 1144 q 187 1120 178 1129 q 211 1111 196 1111 q 235 1120 226 1111 q 244 1144 244 1129 q 235 1169 244 1160 q 211 1178 226 1178 q 187 1169 196 1178 q 178 1144 178 1160 m 269 0 l 253 240 l 169 240 l 154 0 l 7 0 l 117 1036 l 306 1036 l 417 0 l 269 0 m 176 351 l 246 351 l 211 878 l 176 351 z "},"Æ":{"ha":633,"x_min":0,"x_max":622,"o":"m 418 706 l 574 706 l 574 594 l 418 594 l 418 114 l 622 114 l 622 0 l 267 0 l 267 240 l 185 240 l 147 0 l 0 0 l 186 1036 l 622 1036 l 622 925 l 418 925 l 418 706 m 267 351 l 267 886 l 203 351 l 267 351 z "},"Ç":{"ha":307,"x_min":11,"x_max":296,"o":"m 88 -74 q 122 -89 107 -85 q 146 -93 136 -93 q 162 -87 157 -93 q 167 -75 167 -82 q 144 -54 167 -58 q 114 -26 114 -49 q 120 -9 114 -17 q 140 0 126 -1 l 85 0 q 32 21 53 0 q 11 74 11 42 l 11 961 q 32 1014 11 992 q 85 1036 53 1036 l 296 1036 l 296 922 l 161 922 l 161 114 l 296 114 l 296 0 l 186 0 l 186 -19 q 233 -42 218 -22 q 247 -85 247 -61 q 226 -137 247 -112 q 163 -161 204 -161 q 88 -142 128 -161 l 88 -74 z "},"È":{"ha":378,"x_min":11,"x_max":367,"o":"m 40 1194 l 188 1194 l 254 1064 l 175 1064 l 40 1194 m 163 706 l 318 706 l 318 594 l 163 594 l 163 114 l 367 114 l 367 0 l 11 0 l 11 1036 l 367 1036 l 367 925 l 163 925 l 163 706 z "},"É":{"ha":378,"x_min":11,"x_max":367,"o":"m 211 1064 l 132 1064 l 199 1194 l 346 1194 l 211 1064 m 163 706 l 318 706 l 318 594 l 163 594 l 163 114 l 367 114 l 367 0 l 11 0 l 11 1036 l 367 1036 l 367 925 l 163 925 l 163 706 z "},"Ê":{"ha":378,"x_min":11,"x_max":367,"o":"m 192 1146 l 171 1064 l 78 1064 l 132 1194 l 251 1194 l 306 1064 l 213 1064 l 192 1146 m 163 706 l 318 706 l 318 594 l 163 594 l 163 114 l 367 114 l 367 0 l 11 0 l 11 1036 l 367 1036 l 367 925 l 163 925 l 163 706 z "},"Ë":{"ha":378,"x_min":11,"x_max":367,"o":"m 74 1064 l 74 1174 l 169 1174 l 169 1064 l 74 1064 m 207 1064 l 207 1174 l 303 1174 l 303 1064 l 207 1064 m 163 706 l 318 706 l 318 594 l 163 594 l 163 114 l 367 114 l 367 0 l 11 0 l 11 1036 l 367 1036 l 367 925 l 163 925 l 163 706 z "},"Ì":{"ha":174,"x_min":-87,"x_max":163,"o":"m -87 1194 l 60 1194 l 126 1064 l 47 1064 l -87 1194 m 163 0 l 11 0 l 11 1036 l 163 1036 l 163 0 z "},"Í":{"ha":174,"x_min":11,"x_max":267,"o":"m 132 1064 l 53 1064 l 119 1194 l 267 1194 l 132 1064 m 163 0 l 11 0 l 11 1036 l 163 1036 l 163 0 z "},"Î":{"ha":174,"x_min":-28,"x_max":200,"o":"m 86 1146 l 65 1064 l -28 1064 l 26 1194 l 146 1194 l 200 1064 l 107 1064 l 86 1146 m 163 0 l 11 0 l 11 1036 l 163 1036 l 163 0 z "},"Ï":{"ha":174,"x_min":-11,"x_max":185,"o":"m -11 1064 l -11 1174 l 74 1174 l 74 1064 l -11 1064 m 100 1064 l 100 1174 l 185 1174 l 185 1064 l 100 1064 m 163 0 l 11 0 l 11 1036 l 163 1036 l 163 0 z "},"Ð":{"ha":394,"x_min":0,"x_max":383,"o":"m 0 500 l 28 500 l 28 1036 l 307 1036 q 361 1015 339 1036 q 383 961 383 993 l 383 72 q 363 21 383 42 q 311 0 342 0 l 28 0 l 28 389 l 0 389 l 0 500 m 179 925 l 179 500 l 207 500 l 207 389 l 179 389 l 179 114 l 233 114 l 233 925 l 179 925 z "},"Ñ":{"ha":414,"x_min":11,"x_max":403,"o":"m 172 1096 q 167 1091 169 1096 q 164 1063 164 1086 l 76 1063 l 76 1110 q 91 1164 76 1142 q 140 1186 106 1186 q 172 1182 156 1186 q 203 1172 188 1178 q 230 1163 218 1167 q 249 1158 242 1158 q 254 1164 251 1158 q 257 1193 257 1169 l 347 1193 l 347 1138 q 332 1090 347 1110 q 283 1071 317 1071 q 249 1075 267 1071 q 217 1083 232 1079 q 190 1092 201 1088 q 172 1096 178 1096 m 257 1036 l 257 585 l 169 1036 l 11 1036 l 11 0 l 157 0 l 157 585 l 256 0 l 403 0 l 403 1036 l 257 1036 z "},"Ò":{"ha":376,"x_min":11,"x_max":365,"o":"m 32 1194 l 179 1194 l 246 1064 l 167 1064 l 32 1194 m 289 1038 q 343 1015 321 1038 q 365 963 365 993 l 365 74 q 343 21 365 42 q 289 0 321 0 l 85 0 q 32 21 53 0 q 11 74 11 42 l 11 963 q 32 1015 11 993 q 85 1038 53 1038 l 289 1038 m 215 925 l 161 925 l 161 114 l 215 114 l 215 925 z "},"Ó":{"ha":379,"x_min":11,"x_max":368,"o":"m 233 1064 l 154 1064 l 221 1194 l 368 1194 l 233 1064 m 289 1038 q 343 1015 321 1038 q 365 963 365 993 l 365 74 q 343 21 365 42 q 289 0 321 0 l 85 0 q 32 21 53 0 q 11 74 11 42 l 11 963 q 32 1015 11 993 q 85 1038 53 1038 l 289 1038 m 215 925 l 161 925 l 161 114 l 215 114 l 215 925 z "},"Ô":{"ha":376,"x_min":11,"x_max":365,"o":"m 186 1146 l 165 1064 l 72 1064 l 126 1194 l 246 1194 l 300 1064 l 207 1064 l 186 1146 m 289 1038 q 343 1015 321 1038 q 365 963 365 993 l 365 74 q 343 21 365 42 q 289 0 321 0 l 85 0 q 32 21 53 0 q 11 74 11 42 l 11 963 q 32 1015 11 993 q 85 1038 53 1038 l 289 1038 m 215 925 l 161 925 l 161 114 l 215 114 l 215 925 z "},"Õ":{"ha":376,"x_min":11,"x_max":365,"o":"m 149 1097 q 143 1092 146 1097 q 140 1064 140 1088 l 53 1064 l 53 1111 q 67 1165 53 1143 q 117 1188 82 1188 q 148 1183 132 1188 q 179 1174 164 1179 q 206 1164 194 1168 q 225 1160 218 1160 q 231 1165 228 1160 q 233 1194 233 1171 l 324 1194 l 324 1139 q 308 1092 324 1111 q 260 1072 293 1072 q 226 1076 243 1072 q 193 1085 208 1081 q 166 1093 178 1089 q 149 1097 154 1097 m 289 1038 l 85 1038 q 32 1015 53 1038 q 11 963 11 993 l 11 74 q 32 21 11 42 q 85 0 53 0 l 289 0 q 343 21 321 0 q 365 74 365 42 l 365 963 q 343 1015 365 993 q 289 1038 321 1038 m 215 114 l 161 114 l 161 925 l 215 925 l 215 114 z "},"Ö":{"ha":376,"x_min":11,"x_max":365,"o":"m 74 1064 l 74 1174 l 169 1174 l 169 1064 l 74 1064 m 207 1064 l 207 1174 l 303 1174 l 303 1064 l 207 1064 m 289 1038 q 343 1015 321 1038 q 365 963 365 993 l 365 74 q 343 21 365 42 q 289 0 321 0 l 85 0 q 32 21 53 0 q 11 74 11 42 l 11 963 q 32 1015 11 993 q 85 1038 53 1038 l 289 1038 m 215 925 l 161 925 l 161 114 l 215 114 l 215 925 z "},"×":{"ha":410,"x_min":69,"x_max":340,"o":"m 340 525 l 269 454 l 340 383 l 276 319 l 206 390 l 133 318 l 69 382 l 142 454 l 69 526 l 133 590 l 206 518 l 276 589 l 340 525 z "},"Ø":{"ha":410,"x_min":-7,"x_max":417,"o":"m 36 0 l -7 0 l 374 1038 l 417 1038 l 36 0 m 306 1038 q 360 1015 338 1038 q 382 963 382 993 l 382 74 q 360 21 382 42 q 306 0 338 0 l 101 0 q 49 21 69 0 q 28 74 28 42 l 28 963 q 49 1015 28 993 q 101 1038 69 1038 l 306 1038 m 232 925 l 178 925 l 178 114 l 232 114 l 232 925 z "},"Ù":{"ha":376,"x_min":11,"x_max":365,"o":"m 13 1194 l 160 1194 l 226 1064 l 147 1064 l 13 1194 m 161 114 l 215 114 l 161 114 m 365 1036 l 365 74 q 343 21 365 42 q 289 0 321 0 l 85 0 q 32 21 53 0 q 11 74 11 42 l 11 1036 l 161 1036 l 161 114 l 215 114 l 215 1036 l 365 1036 z "},"Ú":{"ha":376,"x_min":11,"x_max":365,"o":"m 228 1064 l 149 1064 l 215 1194 l 363 1194 l 228 1064 m 161 114 l 215 114 l 161 114 m 365 1036 l 365 74 q 343 21 365 42 q 289 0 321 0 l 85 0 q 32 21 53 0 q 11 74 11 42 l 11 1036 l 161 1036 l 161 114 l 215 114 l 215 1036 l 365 1036 z "},"Û":{"ha":376,"x_min":11,"x_max":365,"o":"m 188 1146 l 167 1064 l 74 1064 l 128 1194 l 247 1194 l 301 1064 l 208 1064 l 188 1146 m 161 114 l 215 114 l 161 114 m 365 1036 l 365 74 q 343 21 365 42 q 289 0 321 0 l 85 0 q 32 21 53 0 q 11 74 11 42 l 11 1036 l 161 1036 l 161 114 l 215 114 l 215 1036 l 365 1036 z "},"Ü":{"ha":376,"x_min":11,"x_max":365,"o":"m 74 1064 l 74 1174 l 169 1174 l 169 1064 l 74 1064 m 207 1064 l 207 1174 l 303 1174 l 303 1064 l 207 1064 m 161 114 l 215 114 l 161 114 m 365 1036 l 365 74 q 343 21 365 42 q 289 0 321 0 l 85 0 q 32 21 53 0 q 11 74 11 42 l 11 1036 l 161 1036 l 161 114 l 215 114 l 215 1036 l 365 1036 z "},"Ý":{"ha":479,"x_min":7,"x_max":472,"o":"m 281 1064 l 201 1064 l 268 1194 l 415 1194 l 281 1064 m 472 1036 l 314 307 l 314 0 l 164 0 l 164 307 l 7 1036 l 168 1036 l 239 549 l 311 1036 l 472 1036 z "},"Þ":{"ha":378,"x_min":11,"x_max":367,"o":"m 367 217 q 349 165 367 186 q 300 144 331 144 l 163 144 l 163 0 l 11 0 l 11 1036 l 163 1036 l 163 939 l 290 939 q 344 917 322 939 q 367 864 367 896 l 367 217 m 163 828 l 163 254 l 217 254 l 217 828 l 163 828 z "},"ß":{"ha":378,"x_min":11,"x_max":367,"o":"m 367 631 q 347 579 367 600 q 297 556 326 558 q 347 531 326 553 q 367 481 367 510 l 367 75 q 345 22 367 43 q 292 0 324 0 l 189 0 l 189 110 l 217 110 l 217 500 l 189 500 l 189 611 l 217 611 l 217 925 l 163 925 l 163 0 l 11 0 l 11 963 q 33 1015 11 993 q 85 1036 54 1036 l 292 1036 q 345 1015 324 1036 q 367 961 367 993 l 367 631 l 367 631 z "},"à":{"ha":378,"x_min":11,"x_max":367,"o":"m 40 1036 l 188 1036 l 254 906 l 175 906 l 40 1036 m 293 878 q 344 856 322 878 q 367 803 367 833 l 367 0 l 88 0 q 33 21 56 0 q 11 74 11 42 l 11 631 q 33 684 11 663 q 88 706 56 706 l 217 706 l 217 767 l 33 767 l 33 878 l 293 878 m 217 594 l 161 594 l 161 114 l 217 114 l 217 594 z "},"á":{"ha":378,"x_min":11,"x_max":367,"o":"m 206 906 l 126 906 l 193 1036 l 340 1036 l 206 906 m 293 878 q 344 856 322 878 q 367 803 367 833 l 367 0 l 88 0 q 33 21 56 0 q 11 74 11 42 l 11 631 q 33 684 11 663 q 88 706 56 706 l 217 706 l 217 767 l 33 767 l 33 878 l 293 878 m 217 594 l 161 594 l 161 114 l 217 114 l 217 594 z "},"â":{"ha":378,"x_min":11,"x_max":367,"o":"m 206 988 l 185 906 l 92 906 l 146 1036 l 265 1036 l 319 906 l 226 906 l 206 988 m 293 878 q 344 856 322 878 q 367 803 367 833 l 367 0 l 88 0 q 33 21 56 0 q 11 74 11 42 l 11 631 q 33 684 11 663 q 88 706 56 706 l 217 706 l 217 767 l 33 767 l 33 878 l 293 878 m 217 594 l 161 594 l 161 114 l 217 114 l 217 594 z "},"ã":{"ha":378,"x_min":11,"x_max":367,"o":"m 158 939 q 153 934 156 939 q 150 906 150 929 l 63 906 l 63 953 q 77 1007 63 985 q 126 1029 92 1029 q 158 1025 142 1029 q 189 1015 174 1021 q 216 1006 204 1010 q 235 1001 228 1001 q 240 1007 238 1001 q 243 1036 243 1013 l 333 1036 l 333 981 q 318 933 333 953 q 269 914 303 914 q 235 918 253 914 q 203 926 218 922 q 176 935 188 931 q 158 939 164 939 m 293 878 l 33 878 l 33 767 l 217 767 l 217 706 l 88 706 q 33 684 56 706 q 11 631 11 663 l 11 74 q 33 21 11 42 q 88 0 56 0 l 367 0 l 367 803 q 344 856 367 833 q 293 878 322 878 m 217 114 l 161 114 l 161 594 l 217 594 l 217 114 z "},"ä":{"ha":378,"x_min":11,"x_max":367,"o":"m 78 926 l 78 1036 l 174 1036 l 174 926 l 78 926 m 211 926 l 211 1036 l 307 1036 l 307 926 l 211 926 m 293 878 q 344 856 322 878 q 367 803 367 833 l 367 0 l 88 0 q 33 21 56 0 q 11 74 11 42 l 11 631 q 33 684 11 663 q 88 706 56 706 l 217 706 l 217 767 l 33 767 l 33 878 l 293 878 m 217 594 l 161 594 l 161 114 l 217 114 l 217 594 z "},"å":{"ha":378,"x_min":11,"x_max":367,"o":"m 119 992 q 143 1048 119 1025 q 200 1071 167 1071 q 256 1048 233 1071 q 279 992 279 1025 q 256 935 279 958 q 200 911 233 911 q 143 935 167 911 q 119 992 119 958 m 167 992 q 176 967 167 976 q 200 958 185 958 q 224 967 215 958 q 233 992 233 976 q 224 1016 233 1007 q 200 1025 215 1025 q 176 1016 185 1025 q 167 992 167 1007 m 293 878 q 344 856 322 878 q 367 803 367 833 l 367 0 l 88 0 q 33 21 56 0 q 11 74 11 42 l 11 631 q 33 684 11 663 q 88 706 56 706 l 217 706 l 217 767 l 33 767 l 33 878 l 293 878 m 217 594 l 161 594 l 161 114 l 217 114 l 217 594 z "},"æ":{"ha":582,"x_min":11,"x_max":571,"o":"m 367 385 l 367 114 l 421 114 l 421 351 l 571 351 l 571 74 q 549 21 571 42 q 494 0 526 0 l 88 0 q 33 21 56 0 q 11 74 11 42 l 11 631 q 33 684 11 663 q 88 706 56 706 l 217 706 l 217 767 l 33 767 l 33 878 l 494 878 q 549 856 526 878 q 571 803 571 833 l 571 385 l 367 385 m 217 594 l 161 594 l 161 114 l 217 114 l 217 594 m 367 488 l 421 488 l 421 767 l 367 767 l 367 488 z "},"ç":{"ha":243,"x_min":11,"x_max":232,"o":"m 232 767 l 161 767 l 161 114 l 232 114 l 232 0 l 85 0 q 32 21 53 0 q 11 74 11 42 l 11 803 q 32 856 11 833 q 85 878 53 878 l 232 878 l 232 767 m 114 0 q 92 -9 99 -1 q 85 -26 85 -17 q 115 -54 85 -49 q 138 -75 138 -58 q 133 -87 138 -82 q 117 -93 128 -93 q 92 -89 107 -93 q 58 -74 78 -85 l 58 -142 q 133 -161 99 -161 q 197 -137 175 -161 q 218 -85 218 -112 q 203 -42 218 -61 q 157 -19 189 -22 l 157 0 l 114 0 z "},"è":{"ha":376,"x_min":11,"x_max":365,"o":"m 54 1036 l 201 1036 l 268 906 l 189 906 l 54 1036 m 161 385 l 161 114 l 215 114 l 215 351 l 365 351 l 365 74 q 343 21 365 42 q 289 0 321 0 l 85 0 q 32 21 53 0 q 11 74 11 42 l 11 803 q 32 856 11 833 q 85 878 53 878 l 289 878 q 343 856 321 878 q 365 803 365 833 l 365 385 l 161 385 m 161 488 l 215 488 l 215 767 l 161 767 l 161 488 z "},"é":{"ha":376,"x_min":11,"x_max":365,"o":"m 192 906 l 113 906 l 179 1036 l 326 1036 l 192 906 m 161 385 l 161 114 l 215 114 l 215 351 l 365 351 l 365 74 q 343 21 365 42 q 289 0 321 0 l 85 0 q 32 21 53 0 q 11 74 11 42 l 11 803 q 32 856 11 833 q 85 878 53 878 l 289 878 q 343 856 321 878 q 365 803 365 833 l 365 385 l 161 385 m 161 488 l 215 488 l 215 767 l 161 767 l 161 488 z "},"ê":{"ha":376,"x_min":11,"x_max":365,"o":"m 189 988 l 168 906 l 75 906 l 129 1036 l 249 1036 l 303 906 l 210 906 l 189 988 m 161 385 l 161 114 l 215 114 l 215 351 l 365 351 l 365 74 q 343 21 365 42 q 289 0 321 0 l 85 0 q 32 21 53 0 q 11 74 11 42 l 11 803 q 32 856 11 833 q 85 878 53 878 l 289 878 q 343 856 321 878 q 365 803 365 833 l 365 385 l 161 385 m 161 488 l 215 488 l 215 767 l 161 767 l 161 488 z "},"ë":{"ha":376,"x_min":11,"x_max":365,"o":"m 74 926 l 74 1036 l 169 1036 l 169 926 l 74 926 m 207 926 l 207 1036 l 303 1036 l 303 926 l 207 926 m 161 385 l 161 114 l 215 114 l 215 351 l 365 351 l 365 74 q 343 21 365 42 q 289 0 321 0 l 85 0 q 32 21 53 0 q 11 74 11 42 l 11 803 q 32 856 11 833 q 85 878 53 878 l 289 878 q 343 856 321 878 q 365 803 365 833 l 365 385 l 161 385 m 161 488 l 215 488 l 215 767 l 161 767 l 161 488 z "},"ì":{"ha":175,"x_min":-83,"x_max":164,"o":"m -83 1036 l 64 1036 l 131 906 l 51 906 l -83 1036 m 13 0 l 13 878 l 164 878 l 164 0 l 13 0 z "},"í":{"ha":174,"x_min":13,"x_max":257,"o":"m 122 906 l 43 906 l 110 1036 l 257 1036 l 122 906 m 13 0 l 13 878 l 164 878 l 164 0 l 13 0 z "},"î":{"ha":175,"x_min":-26,"x_max":201,"o":"m 88 988 l 67 906 l -26 906 l 28 1036 l 147 1036 l 201 906 l 108 906 l 88 988 m 13 0 l 13 878 l 164 878 l 164 0 l 13 0 z "},"ï":{"ha":176,"x_min":-10,"x_max":186,"o":"m -10 926 l -10 1036 l 75 1036 l 75 926 l -10 926 m 101 926 l 101 1036 l 186 1036 l 186 926 l 101 926 m 13 0 l 13 878 l 164 878 l 164 0 l 13 0 z "},"ð":{"ha":378,"x_min":11,"x_max":367,"o":"m 11 806 q 32 856 11 835 q 83 878 53 878 l 233 878 l 96 1036 l 250 1036 l 331 925 q 362 861 357 886 q 367 811 367 836 l 367 74 q 345 22 367 43 q 293 0 324 0 l 85 0 q 33 22 54 0 q 11 74 11 43 l 11 806 m 215 114 l 215 767 l 161 767 l 161 114 l 215 114 m 94 946 l 357 1036 l 357 986 l 94 896 l 94 946 z "},"ñ":{"ha":376,"x_min":11,"x_max":365,"o":"m 144 939 q 139 934 142 939 q 136 906 136 929 l 49 906 l 49 953 q 63 1007 49 985 q 113 1029 78 1029 q 144 1025 128 1029 q 175 1015 160 1021 q 202 1006 190 1010 q 221 1001 214 1001 q 226 1007 224 1001 q 229 1036 229 1013 l 319 1036 l 319 981 q 304 933 319 953 q 256 914 289 914 q 222 918 239 914 q 189 926 204 922 q 162 935 174 931 q 144 939 150 939 m 215 767 l 161 767 l 215 767 m 161 0 l 161 767 l 215 767 l 215 0 l 365 0 l 365 803 q 344 856 365 835 q 290 878 322 878 l 11 878 l 11 0 l 161 0 z "},"ò":{"ha":376,"x_min":11,"x_max":365,"o":"m 31 1036 l 178 1036 l 244 906 l 165 906 l 31 1036 m 289 878 q 343 856 321 878 q 365 803 365 833 l 365 74 q 343 21 365 42 q 289 0 321 0 l 85 0 q 32 21 53 0 q 11 74 11 42 l 11 803 q 32 856 11 833 q 85 878 53 878 l 289 878 m 215 767 l 161 767 l 161 114 l 215 114 l 215 767 z "},"ó":{"ha":376,"x_min":11,"x_max":365,"o":"m 225 906 l 146 906 l 213 1036 l 360 1036 l 225 906 m 289 878 q 343 856 321 878 q 365 803 365 833 l 365 74 q 343 21 365 42 q 289 0 321 0 l 85 0 q 32 21 53 0 q 11 74 11 42 l 11 803 q 32 856 11 833 q 85 878 53 878 l 289 878 m 215 767 l 161 767 l 161 114 l 215 114 l 215 767 z "},"ô":{"ha":376,"x_min":11,"x_max":365,"o":"m 190 988 l 169 906 l 76 906 l 131 1036 l 250 1036 l 304 906 l 211 906 l 190 988 m 289 878 q 343 856 321 878 q 365 803 365 833 l 365 74 q 343 21 365 42 q 289 0 321 0 l 85 0 q 32 21 53 0 q 11 74 11 42 l 11 803 q 32 856 11 833 q 85 878 53 878 l 289 878 m 215 767 l 161 767 l 161 114 l 215 114 l 215 767 z "},"õ":{"ha":376,"x_min":11,"x_max":365,"o":"m 144 939 q 139 934 142 939 q 136 906 136 929 l 49 906 l 49 953 q 63 1007 49 985 q 113 1029 78 1029 q 144 1025 128 1029 q 175 1015 160 1021 q 202 1006 190 1010 q 221 1001 214 1001 q 226 1007 224 1001 q 229 1036 229 1013 l 319 1036 l 319 981 q 304 933 319 953 q 256 914 289 914 q 222 918 239 914 q 189 926 204 922 q 162 935 174 931 q 144 939 150 939 m 289 878 l 85 878 q 32 856 53 878 q 11 803 11 833 l 11 74 q 32 21 11 42 q 85 0 53 0 l 289 0 q 343 21 321 0 q 365 74 365 42 l 365 803 q 343 856 365 833 q 289 878 321 878 m 215 114 l 161 114 l 161 767 l 215 767 l 215 114 z "},"ö":{"ha":376,"x_min":11,"x_max":365,"o":"m 74 926 l 74 1036 l 169 1036 l 169 926 l 74 926 m 207 926 l 207 1036 l 303 1036 l 303 926 l 207 926 m 289 878 q 343 856 321 878 q 365 803 365 833 l 365 74 q 343 21 365 42 q 289 0 321 0 l 85 0 q 32 21 53 0 q 11 74 11 42 l 11 803 q 32 856 11 833 q 85 878 53 878 l 289 878 m 215 767 l 161 767 l 161 114 l 215 114 l 215 767 z "},"÷":{"ha":431,"x_min":69,"x_max":361,"o":"m 69 500 l 361 500 l 361 410 l 69 410 l 69 500 m 161 356 l 268 356 l 268 269 l 161 269 l 161 356 m 161 642 l 268 642 l 268 556 l 161 556 l 161 642 z "},"ø":{"ha":388,"x_min":-14,"x_max":401,"o":"m 296 878 q 349 856 326 878 l 358 878 l 401 878 l 372 808 l 372 74 q 350 21 372 42 q 296 0 328 0 l 92 0 q 38 22 60 0 l 29 0 l -14 0 l 18 75 l 18 803 q 39 856 18 833 q 92 878 60 878 l 296 878 m 222 456 l 168 328 l 168 114 l 222 114 l 222 456 m 168 429 l 222 557 l 222 767 l 168 767 l 168 429 z "},"ù":{"ha":376,"x_min":11,"x_max":365,"o":"m 25 1036 l 172 1036 l 239 906 l 160 906 l 25 1036 m 161 114 l 215 114 l 161 114 m 365 878 l 365 74 q 343 21 365 42 q 289 0 321 0 l 85 0 q 32 21 53 0 q 11 74 11 42 l 11 878 l 161 878 l 161 114 l 215 114 l 215 878 l 365 878 z "},"ú":{"ha":376,"x_min":11,"x_max":365,"o":"m 231 906 l 151 906 l 218 1036 l 365 1036 l 231 906 m 161 114 l 215 114 l 161 114 m 365 878 l 365 74 q 343 21 365 42 q 289 0 321 0 l 85 0 q 32 21 53 0 q 11 74 11 42 l 11 878 l 161 878 l 161 114 l 215 114 l 215 878 l 365 878 z "},"û":{"ha":376,"x_min":11,"x_max":365,"o":"m 188 988 l 167 906 l 74 906 l 128 1036 l 247 1036 l 301 906 l 208 906 l 188 988 m 161 114 l 215 114 l 161 114 m 365 878 l 365 74 q 343 21 365 42 q 289 0 321 0 l 85 0 q 32 21 53 0 q 11 74 11 42 l 11 878 l 161 878 l 161 114 l 215 114 l 215 878 l 365 878 z "},"ü":{"ha":376,"x_min":11,"x_max":365,"o":"m 74 926 l 74 1036 l 169 1036 l 169 926 l 74 926 m 207 926 l 207 1036 l 303 1036 l 303 926 l 207 926 m 161 114 l 215 114 l 161 114 m 365 878 l 365 74 q 343 21 365 42 q 289 0 321 0 l 85 0 q 32 21 53 0 q 11 74 11 42 l 11 878 l 161 878 l 161 114 l 215 114 l 215 878 l 365 878 z "},"ý":{"ha":374,"x_min":11,"x_max":363,"o":"m 221 906 l 142 906 l 208 1036 l 356 1036 l 221 906 m 214 878 l 363 878 l 363 -83 q 341 -137 363 -115 q 288 -158 319 -158 l 11 -158 l 11 -46 l 214 -46 l 214 0 l 85 0 q 32 21 53 0 q 11 74 11 42 l 11 878 l 160 878 l 160 114 l 214 114 l 214 878 z "},"þ":{"ha":378,"x_min":11,"x_max":367,"o":"m 367 72 q 349 21 367 42 q 300 0 331 0 l 163 0 l 163 -158 l 11 -158 l 11 1036 l 163 1036 l 163 878 l 290 878 q 344 856 322 878 q 367 803 367 835 l 367 72 m 163 767 l 163 110 l 217 110 l 217 767 l 163 767 z "},"ÿ":{"ha":374,"x_min":11,"x_max":363,"o":"m 72 926 l 72 1036 l 168 1036 l 168 926 l 72 926 m 206 926 l 206 1036 l 301 1036 l 301 926 l 206 926 m 214 878 l 363 878 l 363 -83 q 341 -137 363 -115 q 288 -158 319 -158 l 11 -158 l 11 -46 l 214 -46 l 214 0 l 85 0 q 32 21 53 0 q 11 74 11 42 l 11 878 l 160 878 l 160 114 l 214 114 l 214 878 z "},"Ā":{"ha":424,"x_min":7,"x_max":417,"o":"m 128 1128 l 296 1128 l 296 1064 l 128 1064 l 128 1128 m 269 0 l 253 240 l 169 240 l 154 0 l 7 0 l 117 1036 l 306 1036 l 417 0 l 269 0 m 176 351 l 246 351 l 211 878 l 176 351 z "},"ā":{"ha":378,"x_min":11,"x_max":367,"o":"m 114 1018 l 282 1018 l 282 954 l 114 954 l 114 1018 m 293 878 q 344 856 322 878 q 367 803 367 833 l 367 0 l 88 0 q 33 21 56 0 q 11 74 11 42 l 11 631 q 33 684 11 663 q 88 706 56 706 l 217 706 l 217 767 l 33 767 l 33 878 l 293 878 m 217 594 l 161 594 l 161 114 l 217 114 l 217 594 z "},"Ă":{"ha":424,"x_min":7,"x_max":417,"o":"m 185 1176 l 185 1129 l 235 1129 l 235 1176 l 317 1176 l 317 1126 q 257 1067 317 1067 l 167 1067 q 106 1126 106 1067 l 106 1176 l 185 1176 m 269 0 l 253 240 l 169 240 l 154 0 l 7 0 l 117 1036 l 306 1036 l 417 0 l 269 0 m 176 351 l 246 351 l 211 878 l 176 351 z "},"ă":{"ha":378,"x_min":11,"x_max":367,"o":"m 174 1036 l 174 989 l 224 989 l 224 1036 l 306 1036 l 306 986 q 246 926 306 926 l 156 926 q 94 986 94 926 l 94 1036 l 174 1036 m 293 878 q 344 856 322 878 q 367 803 367 833 l 367 0 l 88 0 q 33 21 56 0 q 11 74 11 42 l 11 631 q 33 684 11 663 q 88 706 56 706 l 217 706 l 217 767 l 33 767 l 33 878 l 293 878 m 217 594 l 161 594 l 161 114 l 217 114 l 217 594 z "},"Ą":{"ha":424,"x_min":7,"x_max":417,"o":"m 410 0 q 366 -12 382 0 q 350 -37 350 -24 q 366 -62 350 -51 q 417 -72 382 -72 l 417 -158 l 386 -158 q 308 -135 335 -158 q 282 -82 282 -112 q 297 -37 282 -60 q 343 0 311 -15 l 269 0 l 253 240 l 169 240 l 154 0 l 7 0 l 117 1036 l 306 1036 l 417 0 l 410 0 m 176 351 l 246 351 l 211 878 l 176 351 z "},"ą":{"ha":378,"x_min":11,"x_max":367,"o":"m 293 878 q 344 856 322 878 q 367 803 367 833 l 367 0 l 339 0 q 295 -12 311 0 q 279 -37 279 -24 q 295 -62 279 -51 q 346 -72 311 -72 l 346 -158 l 315 -158 q 238 -135 264 -158 q 211 -82 211 -112 q 226 -37 211 -60 q 272 0 240 -15 l 88 0 q 33 21 56 0 q 11 74 11 42 l 11 631 q 33 684 11 663 q 88 706 56 706 l 217 706 l 217 767 l 33 767 l 33 878 l 293 878 m 217 594 l 161 594 l 161 114 l 217 114 l 217 594 z "},"Ć":{"ha":326,"x_min":11,"x_max":315,"o":"m 296 922 l 161 922 l 161 114 l 296 114 l 296 0 l 85 0 q 32 21 53 0 q 11 74 11 42 l 11 961 q 32 1014 11 992 q 85 1036 53 1036 l 296 1036 l 296 922 m 181 1064 l 101 1064 l 168 1194 l 315 1194 l 181 1064 z "},"ć":{"ha":247,"x_min":11,"x_max":299,"o":"m 232 767 l 161 767 l 161 114 l 232 114 l 232 0 l 85 0 q 32 21 53 0 q 11 74 11 42 l 11 803 q 32 856 11 833 q 85 878 53 878 l 232 878 l 232 767 m 164 906 l 85 906 l 151 1036 l 299 1036 l 164 906 z "},"Ĉ":{"ha":307,"x_min":11,"x_max":296,"o":"m 296 922 l 161 922 l 161 114 l 296 114 l 296 0 l 85 0 q 32 21 53 0 q 11 74 11 42 l 11 961 q 32 1014 11 992 q 85 1036 53 1036 l 296 1036 l 296 922 m 160 1146 l 139 1064 l 46 1064 l 100 1194 l 219 1194 l 274 1064 l 181 1064 l 160 1146 z "},"ĉ":{"ha":240,"x_min":11,"x_max":247,"o":"m 232 767 l 161 767 l 161 114 l 232 114 l 232 0 l 85 0 q 32 21 53 0 q 11 74 11 42 l 11 803 q 32 856 11 833 q 85 878 53 878 l 232 878 l 232 767 m 133 988 l 113 906 l 19 906 l 74 1036 l 193 1036 l 247 906 l 154 906 l 133 988 z "},"Ċ":{"ha":307,"x_min":11,"x_max":296,"o":"m 118 1082 l 118 1178 l 214 1178 l 214 1082 l 118 1082 m 296 922 l 161 922 l 161 114 l 296 114 l 296 0 l 85 0 q 32 21 53 0 q 11 74 11 42 l 11 961 q 32 1014 11 992 q 85 1036 53 1036 l 296 1036 l 296 922 z "},"ċ":{"ha":243,"x_min":11,"x_max":232,"o":"m 88 940 l 88 1036 l 183 1036 l 183 940 l 88 940 m 232 767 l 161 767 l 161 114 l 232 114 l 232 0 l 85 0 q 32 21 53 0 q 11 74 11 42 l 11 803 q 32 856 11 833 q 85 878 53 878 l 232 878 l 232 767 z "},"Č":{"ha":307,"x_min":11,"x_max":296,"o":"m 172 1194 l 265 1194 l 211 1064 l 92 1064 l 38 1194 l 131 1194 l 151 1113 l 172 1194 m 296 922 l 161 922 l 161 114 l 296 114 l 296 0 l 85 0 q 32 21 53 0 q 11 74 11 42 l 11 961 q 32 1014 11 992 q 85 1036 53 1036 l 296 1036 l 296 922 z "},"č":{"ha":250,"x_min":11,"x_max":239,"o":"m 146 1036 l 239 1036 l 185 906 l 65 906 l 11 1036 l 104 1036 l 125 954 l 146 1036 m 238 767 l 167 767 l 167 114 l 238 114 l 238 0 l 90 0 q 38 21 58 0 q 17 74 17 42 l 17 803 q 38 856 17 833 q 90 878 58 878 l 238 878 l 238 767 z "},"Ď":{"ha":378,"x_min":11,"x_max":367,"o":"m 367 72 q 346 21 367 42 q 294 0 325 0 l 11 0 l 11 1036 l 290 1036 q 344 1015 322 1036 q 367 961 367 993 l 367 72 m 163 925 l 163 114 l 217 114 l 217 925 l 163 925 m 194 1194 l 288 1194 l 233 1064 l 114 1064 l 60 1194 l 153 1194 l 174 1113 l 194 1194 z "},"ď":{"ha":531,"x_min":11,"x_max":524,"o":"m 389 1036 l 524 1036 l 524 935 q 513 890 524 907 q 475 847 503 872 l 389 767 l 389 878 l 465 922 l 389 922 l 389 1036 m 11 806 q 32 856 11 835 q 83 878 53 878 l 215 878 l 215 1036 l 367 1036 l 367 0 l 88 0 q 33 21 56 0 q 11 74 11 42 l 11 806 m 215 114 l 215 767 l 161 767 l 161 114 l 215 114 z "},"Đ":{"ha":399,"x_min":3,"x_max":388,"o":"m 3 556 l 32 556 l 32 1036 l 311 1036 q 365 1015 343 1036 q 388 961 388 993 l 388 72 q 367 21 388 42 q 315 0 346 0 l 32 0 l 32 444 l 3 444 l 3 556 m 183 925 l 183 556 l 210 556 l 210 444 l 183 444 l 183 114 l 238 114 l 238 925 l 183 925 z "},"đ":{"ha":407,"x_min":11,"x_max":407,"o":"m 175 982 l 215 982 l 215 1036 l 367 1036 l 367 982 l 407 982 l 407 908 l 367 908 l 367 0 l 88 0 q 33 21 56 0 q 11 74 11 42 l 11 806 q 32 856 11 835 q 83 878 53 878 l 215 878 l 215 908 l 175 908 l 175 982 m 215 114 l 215 767 l 161 767 l 161 114 l 215 114 z "},"Ē":{"ha":378,"x_min":11,"x_max":367,"o":"m 78 1128 l 301 1128 l 301 1064 l 78 1064 l 78 1128 m 163 706 l 318 706 l 318 594 l 163 594 l 163 114 l 367 114 l 367 0 l 11 0 l 11 1036 l 367 1036 l 367 925 l 163 925 l 163 706 z "},"ē":{"ha":376,"x_min":11,"x_max":365,"o":"m 78 1036 l 301 1036 l 301 972 l 78 972 l 78 1036 m 161 385 l 161 114 l 215 114 l 215 351 l 365 351 l 365 74 q 343 21 365 42 q 289 0 321 0 l 85 0 q 32 21 53 0 q 11 74 11 42 l 11 803 q 32 856 11 833 q 85 878 53 878 l 289 878 q 343 856 321 878 q 365 803 365 833 l 365 385 l 161 385 m 161 488 l 215 488 l 215 767 l 161 767 l 161 488 z "},"Ĕ":{"ha":378,"x_min":11,"x_max":367,"o":"m 163 706 l 318 706 l 318 594 l 163 594 l 163 114 l 367 114 l 367 0 l 11 0 l 11 1036 l 367 1036 l 367 925 l 163 925 l 163 706 m 154 1176 l 154 1129 l 204 1129 l 204 1176 l 286 1176 l 286 1126 q 226 1067 286 1067 l 136 1067 q 75 1126 75 1067 l 75 1176 l 154 1176 z "},"ĕ":{"ha":376,"x_min":11,"x_max":365,"o":"m 163 1036 l 163 989 l 213 989 l 213 1036 l 294 1036 l 294 986 q 235 926 294 926 l 144 926 q 83 986 83 926 l 83 1036 l 163 1036 m 161 385 l 161 114 l 215 114 l 215 351 l 365 351 l 365 74 q 343 21 365 42 q 289 0 321 0 l 85 0 q 32 21 53 0 q 11 74 11 42 l 11 803 q 32 856 11 833 q 85 878 53 878 l 289 878 q 343 856 321 878 q 365 803 365 833 l 365 385 l 161 385 m 161 488 l 215 488 l 215 767 l 161 767 l 161 488 z "},"Ė":{"ha":378,"x_min":11,"x_max":367,"o":"m 146 1082 l 146 1178 l 242 1178 l 242 1082 l 146 1082 m 163 706 l 318 706 l 318 594 l 163 594 l 163 114 l 367 114 l 367 0 l 11 0 l 11 1036 l 367 1036 l 367 925 l 163 925 l 163 706 z "},"ė":{"ha":376,"x_min":11,"x_max":365,"o":"m 142 940 l 142 1036 l 238 1036 l 238 940 l 142 940 m 161 385 l 161 114 l 215 114 l 215 351 l 365 351 l 365 74 q 343 21 365 42 q 289 0 321 0 l 85 0 q 32 21 53 0 q 11 74 11 42 l 11 803 q 32 856 11 833 q 85 878 53 878 l 289 878 q 343 856 321 878 q 365 803 365 833 l 365 385 l 161 385 m 161 488 l 215 488 l 215 767 l 161 767 l 161 488 z "},"Ę":{"ha":378,"x_min":11,"x_max":367,"o":"m 163 706 l 318 706 l 318 594 l 163 594 l 163 114 l 367 114 l 367 0 l 244 0 q 201 -12 217 0 q 185 -37 185 -24 q 201 -62 185 -51 q 251 -72 217 -72 l 251 -158 l 221 -158 q 143 -135 169 -158 q 117 -82 117 -112 q 131 -37 117 -60 q 178 0 146 -15 l 11 0 l 11 1036 l 367 1036 l 367 925 l 163 925 l 163 706 z "},"ę":{"ha":376,"x_min":11,"x_max":365,"o":"m 161 385 l 161 114 l 215 114 l 215 351 l 365 351 l 365 74 q 343 21 365 42 q 289 0 321 0 l 217 0 q 189 -43 189 -28 q 197 -58 189 -53 q 215 -67 204 -64 q 237 -72 225 -71 q 257 -72 249 -72 l 257 -158 l 221 -158 q 143 -138 168 -158 q 118 -90 118 -118 q 132 -44 118 -68 q 174 0 146 -19 l 85 0 q 32 21 53 0 q 11 74 11 42 l 11 803 q 32 856 11 833 q 85 878 53 878 l 289 878 q 343 856 321 878 q 365 803 365 833 l 365 385 l 161 385 m 161 488 l 215 488 l 215 767 l 161 767 l 161 488 z "},"Ě":{"ha":378,"x_min":11,"x_max":367,"o":"m 201 1194 l 294 1194 l 240 1064 l 121 1064 l 67 1194 l 160 1194 l 181 1113 l 201 1194 m 163 706 l 318 706 l 318 594 l 163 594 l 163 114 l 367 114 l 367 0 l 11 0 l 11 1036 l 367 1036 l 367 925 l 163 925 l 163 706 z "},"ě":{"ha":376,"x_min":11,"x_max":365,"o":"m 210 1036 l 303 1036 l 249 906 l 129 906 l 75 1036 l 168 1036 l 189 954 l 210 1036 m 161 385 l 161 114 l 215 114 l 215 351 l 365 351 l 365 74 q 343 21 365 42 q 289 0 321 0 l 85 0 q 32 21 53 0 q 11 74 11 42 l 11 803 q 32 856 11 833 q 85 878 53 878 l 289 878 q 343 856 321 878 q 365 803 365 833 l 365 385 l 161 385 m 161 488 l 215 488 l 215 767 l 161 767 l 161 488 z "},"Ĝ":{"ha":378,"x_min":11,"x_max":367,"o":"m 204 1146 l 183 1064 l 90 1064 l 144 1194 l 264 1194 l 318 1064 l 225 1064 l 204 1146 m 367 878 l 367 75 q 345 22 367 43 q 292 0 324 0 l 86 0 q 33 22 54 0 q 11 75 11 43 l 11 961 q 33 1015 11 993 q 86 1036 54 1036 l 367 1036 l 367 925 l 163 925 l 163 114 l 217 114 l 217 878 l 367 878 z "},"ĝ":{"ha":376,"x_min":11,"x_max":365,"o":"m 194 988 l 174 906 l 81 906 l 135 1036 l 254 1036 l 308 906 l 215 906 l 194 988 m 365 878 l 365 -83 q 341 -137 363 -115 q 289 -158 319 -158 l 11 -158 l 11 -46 l 214 -46 l 214 0 l 85 0 q 32 21 53 0 q 11 74 11 42 l 11 803 q 32 856 11 833 q 85 878 53 878 l 365 878 m 214 114 l 214 767 l 161 767 l 161 114 l 214 114 z "},"Ğ":{"ha":378,"x_min":11,"x_max":367,"o":"m 367 878 l 367 75 q 345 22 367 43 q 292 0 324 0 l 86 0 q 33 22 54 0 q 11 75 11 43 l 11 961 q 33 1015 11 993 q 86 1036 54 1036 l 367 1036 l 367 925 l 163 925 l 163 114 l 217 114 l 217 878 l 367 878 m 171 1176 l 171 1129 l 221 1129 l 221 1176 l 303 1176 l 303 1126 q 243 1067 303 1067 l 153 1067 q 92 1126 92 1067 l 92 1176 l 171 1176 z "},"ğ":{"ha":376,"x_min":11,"x_max":365,"o":"m 168 1036 l 168 989 l 218 989 l 218 1036 l 300 1036 l 300 986 q 240 926 300 926 l 150 926 q 89 986 89 926 l 89 1036 l 168 1036 m 365 878 l 365 -83 q 341 -137 363 -115 q 289 -158 319 -158 l 11 -158 l 11 -46 l 214 -46 l 214 0 l 85 0 q 32 21 53 0 q 11 74 11 42 l 11 803 q 32 856 11 833 q 85 878 53 878 l 365 878 m 214 114 l 214 767 l 161 767 l 161 114 l 214 114 z "},"Ġ":{"ha":378,"x_min":11,"x_max":367,"o":"m 367 878 l 367 75 q 345 22 367 43 q 292 0 324 0 l 86 0 q 33 22 54 0 q 11 75 11 43 l 11 961 q 33 1015 11 993 q 86 1036 54 1036 l 367 1036 l 367 925 l 163 925 l 163 114 l 217 114 l 217 878 l 367 878 m 153 1082 l 153 1178 l 249 1178 l 249 1082 l 153 1082 z "},"ġ":{"ha":376,"x_min":11,"x_max":365,"o":"m 147 940 l 147 1036 l 243 1036 l 243 940 l 147 940 m 365 878 l 365 -83 q 341 -137 363 -115 q 289 -158 319 -158 l 11 -158 l 11 -46 l 214 -46 l 214 0 l 85 0 q 32 21 53 0 q 11 74 11 42 l 11 803 q 32 856 11 833 q 85 878 53 878 l 365 878 m 214 114 l 214 767 l 161 767 l 161 114 l 214 114 z "},"Ģ":{"ha":378,"x_min":11,"x_max":367,"o":"m 367 878 l 367 75 q 345 22 367 43 q 292 0 324 0 l 86 0 q 33 22 54 0 q 11 75 11 43 l 11 961 q 33 1015 11 993 q 86 1036 54 1036 l 367 1036 l 367 925 l 163 925 l 163 114 l 217 114 l 217 878 l 367 878 m 119 -29 l 254 -29 l 254 -89 q 244 -134 254 -117 q 206 -176 233 -151 l 119 -257 l 119 -160 l 196 -115 l 119 -115 l 119 -29 z "},"ģ":{"ha":376,"x_min":11,"x_max":365,"o":"m 365 878 l 365 -83 q 341 -137 363 -115 q 289 -158 319 -158 l 11 -158 l 11 -46 l 214 -46 l 214 0 l 85 0 q 32 21 53 0 q 11 74 11 42 l 11 803 q 32 856 11 833 q 85 878 53 878 l 365 878 m 214 114 l 214 767 l 161 767 l 161 114 l 214 114 m 264 921 l 129 921 l 129 981 q 140 1026 129 1008 q 178 1068 150 1043 l 264 1149 l 264 1051 l 188 1007 l 264 1007 l 264 921 z "},"Ĥ":{"ha":378,"x_min":11,"x_max":367,"o":"m 163 0 l 11 0 l 11 1036 l 163 1036 l 163 706 l 217 706 l 217 1036 l 367 1036 l 367 0 l 217 0 l 217 594 l 163 594 l 163 0 m 189 1146 l 168 1064 l 75 1064 l 129 1194 l 249 1194 l 303 1064 l 210 1064 l 189 1146 z "},"ĥ":{"ha":378,"x_min":11,"x_max":367,"o":"m 176 1146 l 156 1064 l 63 1064 l 117 1194 l 236 1194 l 290 1064 l 197 1064 l 176 1146 m 367 0 l 217 0 l 217 767 l 163 767 l 163 0 l 11 0 l 11 1036 l 163 1036 l 163 878 l 294 878 q 346 856 325 878 q 367 806 367 835 l 367 0 z "},"Ħ":{"ha":439,"x_min":0,"x_max":439,"o":"m 0 878 l 42 878 l 42 1036 l 193 1036 l 193 878 l 247 878 l 247 1036 l 397 1036 l 397 878 l 439 878 l 439 804 l 397 804 l 397 0 l 247 0 l 247 594 l 193 594 l 193 0 l 42 0 l 42 804 l 0 804 l 0 878 m 247 706 l 247 804 l 193 804 l 193 706 l 247 706 z "},"ħ":{"ha":403,"x_min":0,"x_max":392,"o":"m 0 982 l 36 982 l 36 1036 l 188 1036 l 188 982 l 232 982 l 232 908 l 188 908 l 188 878 l 319 878 q 371 856 350 878 q 392 806 392 835 l 392 0 l 242 0 l 242 767 l 188 767 l 188 0 l 36 0 l 36 908 l 0 908 l 0 982 z "},"Ĩ":{"ha":174,"x_min":-49,"x_max":222,"o":"m 163 1036 l 11 1036 l 11 0 l 163 0 l 163 1036 m 47 1097 q 42 1092 44 1097 q 39 1064 39 1088 l -49 1064 l -49 1111 q -34 1165 -49 1143 q 15 1188 -19 1188 q 47 1183 31 1188 q 78 1174 63 1179 q 105 1164 93 1168 q 124 1160 117 1160 q 129 1165 126 1160 q 132 1194 132 1171 l 222 1194 l 222 1139 q 207 1092 222 1111 q 158 1072 192 1072 q 124 1076 142 1072 q 92 1085 107 1081 q 65 1093 76 1089 q 47 1097 53 1097 z "},"ĩ":{"ha":171,"x_min":-49,"x_max":222,"o":"m 163 0 l 163 878 l 11 878 l 11 0 l 163 0 m 47 939 q 42 934 44 939 q 39 906 39 929 l -49 906 l -49 953 q -34 1007 -49 985 q 15 1029 -19 1029 q 47 1025 31 1029 q 78 1015 63 1021 q 105 1006 93 1010 q 124 1001 117 1001 q 129 1007 126 1001 q 132 1036 132 1013 l 222 1036 l 222 981 q 207 933 222 953 q 158 914 192 914 q 124 918 142 914 q 92 926 107 922 q 65 935 76 931 q 47 939 53 939 z "},"Ī":{"ha":182,"x_min":7,"x_max":175,"o":"m 7 1128 l 175 1128 l 175 1064 l 7 1064 l 7 1128 m 167 0 l 15 0 l 15 1036 l 167 1036 l 167 0 z "},"ī":{"ha":186,"x_min":10,"x_max":178,"o":"m 10 1036 l 178 1036 l 178 972 l 10 972 l 10 1036 m 18 0 l 18 878 l 169 878 l 169 0 l 18 0 z "},"Į":{"ha":174,"x_min":11,"x_max":163,"o":"m 163 -158 l 132 -158 q 54 -135 81 -158 q 28 -82 28 -112 q 42 -37 28 -60 q 89 0 57 -15 l 11 0 l 11 1036 l 163 1036 l 163 0 l 156 0 q 112 -12 128 0 q 96 -37 96 -24 q 112 -62 96 -51 q 163 -72 128 -72 l 163 -158 z "},"į":{"ha":181,"x_min":18,"x_max":163,"o":"m 156 0 q 112 -12 128 0 q 96 -37 96 -24 q 112 -62 96 -51 q 163 -72 128 -72 l 163 -158 l 132 -158 q 54 -135 81 -158 q 28 -82 28 -112 q 42 -37 28 -60 q 89 0 57 -15 l 18 0 l 18 878 l 163 878 l 163 0 l 156 0 z "},"İ":{"ha":174,"x_min":11,"x_max":163,"o":"m 163 0 l 11 0 l 11 1036 l 163 1036 l 163 0 m 40 1082 l 40 1178 l 136 1178 l 136 1082 l 40 1082 z "},"ı":{"ha":174,"x_min":11,"x_max":163,"o":"m 11 0 l 11 878 l 163 878 l 163 0 l 11 0 z "},"Ĳ":{"ha":350,"x_min":11,"x_max":339,"o":"m 339 75 q 317 22 339 43 q 264 0 296 0 l 11 0 l 11 114 l 188 114 l 188 1036 l 339 1036 l 339 75 m 163 139 l 11 139 l 11 1036 l 163 1036 l 163 139 z "},"ĳ":{"ha":350,"x_min":11,"x_max":339,"o":"m 339 -83 q 317 -137 339 -115 q 264 -158 296 -158 l 11 -158 l 11 -49 l 188 -49 l 188 878 l 339 878 l 339 -83 m 188 926 l 188 1036 l 339 1036 l 339 926 l 188 926 m 11 -24 l 11 878 l 163 878 l 163 -24 l 11 -24 m 11 926 l 11 1036 l 163 1036 l 163 926 l 11 926 z "},"Ĵ":{"ha":328,"x_min":11,"x_max":317,"o":"m 189 1146 l 168 1064 l 75 1064 l 129 1194 l 249 1194 l 303 1064 l 210 1064 l 189 1146 m 317 75 q 295 22 317 43 q 242 0 274 0 l 11 0 l 11 114 l 165 114 l 165 1036 l 317 1036 l 317 75 z "},"ĵ":{"ha":247,"x_min":7,"x_max":236,"o":"m 121 988 l 100 906 l 7 906 l 61 1036 l 181 1036 l 235 906 l 142 906 l 121 988 m 236 -83 q 215 -137 236 -115 q 161 -158 193 -158 l 14 -158 l 14 -49 l 85 -49 l 85 878 l 236 878 l 236 -83 z "},"Ķ":{"ha":406,"x_min":11,"x_max":406,"o":"m 304 704 q 353 684 332 704 q 374 632 374 664 l 374 0 l 226 0 l 226 594 l 163 594 l 163 0 l 11 0 l 11 1036 l 163 1036 l 163 718 l 240 1036 l 406 1036 l 263 704 l 304 704 m 125 -29 l 260 -29 l 260 -89 q 249 -134 260 -117 q 211 -176 239 -151 l 125 -257 l 125 -160 l 201 -115 l 125 -115 l 125 -29 z "},"ķ":{"ha":407,"x_min":11,"x_max":413,"o":"m 304 704 q 353 684 332 704 q 374 632 374 664 l 374 0 l 226 0 l 226 594 l 163 594 l 163 0 l 11 0 l 11 1036 l 163 1036 l 163 718 l 233 878 l 413 878 l 263 704 l 304 704 m 125 -29 l 260 -29 l 260 -89 q 249 -134 260 -117 q 211 -176 239 -151 l 125 -257 l 125 -160 l 201 -115 l 125 -115 l 125 -29 z "},"ĸ":{"ha":406,"x_min":26,"x_max":406,"o":"m 406 925 l 361 925 l 361 774 q 343 726 361 746 q 297 704 325 707 l 319 704 q 368 684 347 704 q 389 632 389 664 l 389 0 l 242 0 l 242 594 l 178 594 l 178 0 l 26 0 l 26 1036 l 178 1036 l 178 704 l 211 704 l 211 961 q 232 1014 211 992 q 285 1036 253 1036 l 406 1036 l 406 925 z "},"Ĺ":{"ha":324,"x_min":11,"x_max":317,"o":"m 163 1036 l 163 114 l 317 114 l 317 0 l 11 0 l 11 1036 l 163 1036 m 103 1064 l 24 1064 l 90 1194 l 238 1194 l 103 1064 z "},"ĺ":{"ha":175,"x_min":11,"x_max":238,"o":"m 11 1036 l 163 1036 l 163 0 l 11 0 l 11 1036 m 103 1064 l 24 1064 l 90 1194 l 238 1194 l 103 1064 z "},"Ļ":{"ha":328,"x_min":11,"x_max":317,"o":"m 163 1036 l 163 114 l 317 114 l 317 0 l 11 0 l 11 1036 l 163 1036 m 97 -29 l 232 -29 l 232 -89 q 222 -134 232 -117 q 183 -176 211 -151 l 97 -257 l 97 -160 l 174 -115 l 97 -115 l 97 -29 z "},"ļ":{"ha":174,"x_min":11,"x_max":163,"o":"m 11 1036 l 163 1036 l 163 0 l 11 0 l 11 1036 m 19 -29 l 154 -29 l 154 -89 q 144 -134 154 -117 q 106 -176 133 -151 l 19 -257 l 19 -160 l 96 -115 l 19 -115 l 19 -29 z "},"Ľ":{"ha":324,"x_min":11,"x_max":317,"o":"m 163 1036 l 163 114 l 317 114 l 317 0 l 11 0 l 11 1036 l 163 1036 m 171 1194 l 264 1194 l 210 1064 l 90 1064 l 36 1194 l 129 1194 l 150 1113 l 171 1194 z "},"ľ":{"ha":318,"x_min":11,"x_max":315,"o":"m 11 1036 l 163 1036 l 163 0 l 11 0 l 11 1036 m 181 1036 l 315 1036 l 315 935 q 305 890 315 907 q 267 847 294 872 l 181 767 l 181 878 l 257 922 l 181 922 l 181 1036 z "},"Ŀ":{"ha":328,"x_min":11,"x_max":317,"o":"m 163 1036 l 163 114 l 317 114 l 317 0 l 11 0 l 11 1036 l 163 1036 m 218 486 l 218 582 l 314 582 l 314 486 l 218 486 z "},"ŀ":{"ha":289,"x_min":11,"x_max":278,"o":"m 182 486 l 182 582 l 278 582 l 278 486 l 182 486 m 11 1036 l 163 1036 l 163 0 l 11 0 l 11 1036 z "},"Ł":{"ha":371,"x_min":0,"x_max":364,"o":"m 210 1036 l 210 549 l 290 582 l 290 532 l 210 499 l 210 114 l 364 114 l 364 0 l 58 0 l 58 438 l 0 414 l 0 464 l 58 488 l 58 1036 l 210 1036 z "},"ł":{"ha":290,"x_min":0,"x_max":290,"o":"m 0 464 l 67 490 l 67 1036 l 218 1036 l 218 553 l 290 582 l 290 532 l 218 503 l 218 0 l 67 0 l 67 440 l 0 414 l 0 464 z "},"Ń":{"ha":414,"x_min":11,"x_max":403,"o":"m 403 1036 l 403 0 l 256 0 l 157 585 l 157 0 l 11 0 l 11 1036 l 169 1036 l 257 585 l 257 1036 l 403 1036 m 236 1064 l 157 1064 l 224 1194 l 371 1194 l 236 1064 z "},"ń":{"ha":376,"x_min":11,"x_max":365,"o":"m 215 767 l 161 767 l 215 767 m 11 0 l 11 878 l 290 878 q 344 856 322 878 q 365 803 365 835 l 365 0 l 215 0 l 215 767 l 161 767 l 161 0 l 11 0 m 181 906 l 101 906 l 168 1036 l 315 1036 l 181 906 z "},"Ņ":{"ha":414,"x_min":11,"x_max":403,"o":"m 136 -29 l 271 -29 l 271 -89 q 260 -134 271 -117 q 222 -176 250 -151 l 136 -257 l 136 -160 l 213 -115 l 136 -115 l 136 -29 m 403 1036 l 403 0 l 256 0 l 157 585 l 157 0 l 11 0 l 11 1036 l 169 1036 l 257 585 l 257 1036 l 403 1036 z "},"ņ":{"ha":376,"x_min":11,"x_max":365,"o":"m 121 -29 l 256 -29 l 256 -89 q 245 -134 256 -117 q 207 -176 235 -151 l 121 -257 l 121 -160 l 197 -115 l 121 -115 l 121 -29 m 215 767 l 161 767 l 215 767 m 11 0 l 11 878 l 290 878 q 344 856 322 878 q 365 803 365 835 l 365 0 l 215 0 l 215 767 l 161 767 l 161 0 l 11 0 z "},"Ň":{"ha":414,"x_min":11,"x_max":403,"o":"m 228 1194 l 321 1194 l 267 1064 l 147 1064 l 93 1194 l 186 1194 l 207 1113 l 228 1194 m 403 1036 l 403 0 l 256 0 l 157 585 l 157 0 l 11 0 l 11 1036 l 169 1036 l 257 585 l 257 1036 l 403 1036 z "},"ň":{"ha":376,"x_min":11,"x_max":365,"o":"m 210 1036 l 303 1036 l 249 906 l 129 906 l 75 1036 l 168 1036 l 189 954 l 210 1036 m 215 767 l 161 767 l 215 767 m 11 0 l 11 878 l 290 878 q 344 856 322 878 q 365 803 365 835 l 365 0 l 215 0 l 215 767 l 161 767 l 161 0 l 11 0 z "},"ŉ":{"ha":378,"x_min":11,"x_max":367,"o":"m 217 767 l 163 767 l 217 767 m 13 0 l 13 878 l 292 878 q 345 856 324 878 q 367 803 367 835 l 367 0 l 217 0 l 217 767 l 163 767 l 163 0 l 13 0 m 11 1149 l 146 1149 l 146 1089 q 135 1044 146 1061 q 97 1001 125 1026 l 11 921 l 11 1018 l 88 1063 l 11 1063 l 11 1149 z "},"Ō":{"ha":376,"x_min":11,"x_max":365,"o":"m 104 1128 l 272 1128 l 272 1064 l 104 1064 l 104 1128 m 289 1038 q 343 1015 321 1038 q 365 963 365 993 l 365 74 q 343 21 365 42 q 289 0 321 0 l 85 0 q 32 21 53 0 q 11 74 11 42 l 11 963 q 32 1015 11 993 q 85 1038 53 1038 l 289 1038 m 215 925 l 161 925 l 161 114 l 215 114 l 215 925 z "},"ō":{"ha":376,"x_min":11,"x_max":365,"o":"m 289 878 q 343 856 321 878 q 365 803 365 833 l 365 74 q 343 21 365 42 q 289 0 321 0 l 85 0 q 32 21 53 0 q 11 74 11 42 l 11 803 q 32 856 11 833 q 85 878 53 878 l 289 878 m 215 767 l 161 767 l 161 114 l 215 114 l 215 767 m 76 1036 l 300 1036 l 300 972 l 76 972 l 76 1036 z "},"Ŏ":{"ha":376,"x_min":11,"x_max":365,"o":"m 160 1176 l 160 1129 l 210 1129 l 210 1176 l 292 1176 l 292 1126 q 232 1067 292 1067 l 142 1067 q 81 1126 81 1067 l 81 1176 l 160 1176 m 289 1038 q 343 1015 321 1038 q 365 963 365 993 l 365 74 q 343 21 365 42 q 289 0 321 0 l 85 0 q 32 21 53 0 q 11 74 11 42 l 11 963 q 32 1015 11 993 q 85 1038 53 1038 l 289 1038 m 215 925 l 161 925 l 161 114 l 215 114 l 215 925 z "},"ŏ":{"ha":376,"x_min":11,"x_max":365,"o":"m 289 878 q 343 856 321 878 q 365 803 365 833 l 365 74 q 343 21 365 42 q 289 0 321 0 l 85 0 q 32 21 53 0 q 11 74 11 42 l 11 803 q 32 856 11 833 q 85 878 53 878 l 289 878 m 215 767 l 161 767 l 161 114 l 215 114 l 215 767 m 163 1036 l 163 989 l 213 989 l 213 1036 l 294 1036 l 294 986 q 235 926 294 926 l 144 926 q 83 986 83 926 l 83 1036 l 163 1036 z "},"Ő":{"ha":376,"x_min":11,"x_max":365,"o":"m 124 1064 l 76 1064 l 129 1194 l 235 1194 l 124 1064 m 247 1064 l 200 1064 l 253 1194 l 358 1194 l 247 1064 m 289 1038 q 343 1015 321 1038 q 365 963 365 993 l 365 74 q 343 21 365 42 q 289 0 321 0 l 85 0 q 32 21 53 0 q 11 74 11 42 l 11 963 q 32 1015 11 993 q 85 1038 53 1038 l 289 1038 m 215 925 l 161 925 l 161 114 l 215 114 l 215 925 z "},"ő":{"ha":376,"x_min":11,"x_max":365,"o":"m 124 906 l 76 906 l 129 1036 l 235 1036 l 124 906 m 247 906 l 200 906 l 253 1036 l 358 1036 l 247 906 m 289 878 q 343 856 321 878 q 365 803 365 833 l 365 74 q 343 21 365 42 q 289 0 321 0 l 85 0 q 32 21 53 0 q 11 74 11 42 l 11 803 q 32 856 11 833 q 85 878 53 878 l 289 878 m 215 767 l 161 767 l 161 114 l 215 114 l 215 767 z "},"Œ":{"ha":582,"x_min":11,"x_max":571,"o":"m 367 706 l 522 706 l 522 594 l 367 594 l 367 114 l 571 114 l 571 0 l 85 0 q 32 21 53 0 q 11 74 11 42 l 11 961 q 32 1014 11 992 q 85 1036 53 1036 l 571 1036 l 571 925 l 367 925 l 367 706 m 215 924 l 161 924 l 161 114 l 215 114 l 215 924 z "},"œ":{"ha":581,"x_min":11,"x_max":569,"o":"m 365 385 l 365 114 l 419 114 l 419 351 l 569 351 l 569 74 q 547 21 569 42 q 493 0 525 0 l 85 0 q 32 21 53 0 q 11 74 11 42 l 11 803 q 32 856 11 833 q 85 878 53 878 l 493 878 q 547 856 525 878 q 569 803 569 833 l 569 385 l 365 385 m 215 767 l 161 767 l 161 114 l 215 114 l 215 767 m 365 488 l 419 488 l 419 767 l 365 767 l 365 488 z "},"Ŕ":{"ha":378,"x_min":11,"x_max":367,"o":"m 11 1036 l 292 1036 q 345 1015 324 1036 q 367 961 367 993 l 367 632 q 347 581 367 601 q 300 557 328 560 q 347 532 328 554 q 367 482 367 510 l 367 0 l 217 0 l 217 501 l 163 501 l 163 0 l 11 0 l 11 1036 m 163 925 l 163 613 l 217 613 l 217 925 l 163 925 m 200 1064 l 121 1064 l 188 1194 l 335 1194 l 200 1064 z "},"ŕ":{"ha":242,"x_min":11,"x_max":293,"o":"m 161 0 l 11 0 l 11 803 q 32 856 11 833 q 85 878 53 878 l 232 878 l 232 767 l 161 767 l 161 0 m 158 906 l 79 906 l 146 1036 l 293 1036 l 158 906 z "},"Ŗ":{"ha":378,"x_min":11,"x_max":367,"o":"m 11 1036 l 292 1036 q 345 1015 324 1036 q 367 961 367 993 l 367 632 q 347 581 367 601 q 300 557 328 560 q 347 532 328 554 q 367 482 367 510 l 367 0 l 217 0 l 217 501 l 163 501 l 163 0 l 11 0 l 11 1036 m 163 925 l 163 613 l 217 613 l 217 925 l 163 925 m 121 -29 l 256 -29 l 256 -89 q 245 -134 256 -117 q 207 -176 235 -151 l 121 -257 l 121 -160 l 197 -115 l 121 -115 l 121 -29 z "},"ŗ":{"ha":243,"x_min":11,"x_max":232,"o":"m 18 -29 l 153 -29 l 153 -89 q 142 -134 153 -117 q 104 -176 132 -151 l 18 -257 l 18 -160 l 94 -115 l 18 -115 l 18 -29 m 161 0 l 11 0 l 11 803 q 32 856 11 833 q 85 878 53 878 l 232 878 l 232 767 l 161 767 l 161 0 z "},"Ř":{"ha":378,"x_min":11,"x_max":367,"o":"m 196 1194 l 289 1194 l 235 1064 l 115 1064 l 61 1194 l 154 1194 l 175 1113 l 196 1194 m 11 1036 l 292 1036 q 345 1015 324 1036 q 367 961 367 993 l 367 632 q 347 581 367 601 q 300 557 328 560 q 347 532 328 554 q 367 482 367 510 l 367 0 l 217 0 l 217 501 l 163 501 l 163 0 l 11 0 l 11 1036 m 163 925 l 163 613 l 217 613 l 217 925 l 163 925 z "},"ř":{"ha":246,"x_min":7,"x_max":235,"o":"m 142 1036 l 235 1036 l 181 906 l 61 906 l 7 1036 l 100 1036 l 121 954 l 142 1036 m 161 0 l 11 0 l 11 803 q 32 856 11 833 q 85 878 53 878 l 232 878 l 232 767 l 161 767 l 161 0 z "},"Ś":{"ha":376,"x_min":11,"x_max":365,"o":"m 215 789 l 215 925 l 161 925 l 161 888 q 193 742 161 819 q 263 578 225 664 q 333 400 301 493 q 365 210 365 307 l 365 74 q 344 21 365 42 q 290 0 322 0 l 88 0 q 34 21 56 0 q 13 74 13 42 l 13 351 l 161 351 l 161 114 l 215 114 l 215 210 q 183 393 215 307 q 113 560 151 479 q 43 724 75 642 q 11 899 11 807 l 11 961 q 33 1014 11 992 q 88 1036 56 1036 l 290 1036 q 344 1014 322 1036 q 365 961 365 992 l 365 789 l 215 789 m 211 1064 l 132 1064 l 199 1194 l 346 1194 l 211 1064 z "},"ś":{"ha":376,"x_min":11,"x_max":365,"o":"m 215 631 l 215 767 l 161 767 l 161 729 q 176 646 161 683 q 214 572 192 608 q 263 499 236 536 q 313 420 290 463 q 350 326 335 378 q 365 210 365 275 l 365 74 q 344 21 365 42 q 290 0 322 0 l 88 0 q 34 21 56 0 q 13 74 13 42 l 13 351 l 161 351 l 161 114 l 215 114 l 215 210 q 200 323 215 275 q 163 409 185 371 q 113 481 140 447 q 64 552 86 515 q 26 634 42 589 q 11 740 11 679 l 11 803 q 33 856 11 833 q 88 878 56 878 l 290 878 q 344 856 322 878 q 365 803 365 833 l 365 631 l 215 631 m 200 906 l 121 906 l 188 1036 l 335 1036 l 200 906 z "},"Ŝ":{"ha":376,"x_min":11,"x_max":365,"o":"m 215 789 l 215 925 l 161 925 l 161 888 q 193 742 161 819 q 263 578 225 664 q 333 400 301 493 q 365 210 365 307 l 365 74 q 344 21 365 42 q 290 0 322 0 l 88 0 q 34 21 56 0 q 13 74 13 42 l 13 351 l 161 351 l 161 114 l 215 114 l 215 210 q 183 393 215 307 q 113 560 151 479 q 43 724 75 642 q 11 899 11 807 l 11 961 q 33 1014 11 992 q 88 1036 56 1036 l 290 1036 q 344 1014 322 1036 q 365 961 365 992 l 365 789 l 215 789 m 188 1146 l 167 1064 l 74 1064 l 128 1194 l 247 1194 l 301 1064 l 208 1064 l 188 1146 z "},"ŝ":{"ha":376,"x_min":11,"x_max":365,"o":"m 215 631 l 215 767 l 161 767 l 161 729 q 176 646 161 683 q 214 572 192 608 q 263 499 236 536 q 313 420 290 463 q 350 326 335 378 q 365 210 365 275 l 365 74 q 344 21 365 42 q 290 0 322 0 l 88 0 q 34 21 56 0 q 13 74 13 42 l 13 351 l 161 351 l 161 114 l 215 114 l 215 210 q 200 323 215 275 q 163 409 185 371 q 113 481 140 447 q 64 552 86 515 q 26 634 42 589 q 11 740 11 679 l 11 803 q 33 856 11 833 q 88 878 56 878 l 290 878 q 344 856 322 878 q 365 803 365 833 l 365 631 l 215 631 m 189 988 l 168 906 l 75 906 l 129 1036 l 249 1036 l 303 906 l 210 906 l 189 988 z "},"Ş":{"ha":376,"x_min":11,"x_max":365,"o":"m 215 789 l 215 925 l 161 925 l 161 888 q 193 742 161 819 q 263 578 225 664 q 333 400 301 493 q 365 210 365 307 l 365 74 q 344 21 365 42 q 290 0 322 0 l 88 0 q 34 21 56 0 q 13 74 13 42 l 13 351 l 161 351 l 161 114 l 215 114 l 215 210 q 183 393 215 307 q 113 560 151 479 q 43 724 75 642 q 11 899 11 807 l 11 961 q 33 1014 11 992 q 88 1036 56 1036 l 290 1036 q 344 1014 322 1036 q 365 961 365 992 l 365 789 l 215 789 m 174 0 q 151 -9 158 -1 q 144 -26 144 -17 q 175 -54 144 -49 q 197 -75 197 -58 q 192 -87 197 -82 q 176 -93 188 -93 q 152 -89 167 -93 q 118 -74 138 -85 l 118 -142 q 193 -161 158 -161 q 256 -137 235 -161 q 278 -85 278 -112 q 263 -42 278 -61 q 217 -19 249 -22 l 217 0 l 174 0 z "},"ş":{"ha":376,"x_min":11,"x_max":365,"o":"m 215 631 l 215 767 l 161 767 l 161 729 q 176 646 161 683 q 214 572 192 608 q 263 499 236 536 q 313 420 290 463 q 350 326 335 378 q 365 210 365 275 l 365 74 q 344 21 365 42 q 290 0 322 0 l 88 0 q 34 21 56 0 q 13 74 13 42 l 13 351 l 161 351 l 161 114 l 215 114 l 215 210 q 200 323 215 275 q 163 409 185 371 q 113 481 140 447 q 64 552 86 515 q 26 634 42 589 q 11 740 11 679 l 11 803 q 33 856 11 833 q 88 878 56 878 l 290 878 q 344 856 322 878 q 365 803 365 833 l 365 631 l 215 631 m 174 0 q 151 -9 158 -1 q 144 -26 144 -17 q 175 -54 144 -49 q 197 -75 197 -58 q 192 -87 197 -82 q 176 -93 188 -93 q 152 -89 167 -93 q 118 -74 138 -85 l 118 -142 q 193 -161 158 -161 q 256 -137 235 -161 q 278 -85 278 -112 q 263 -42 278 -61 q 217 -19 249 -22 l 217 0 l 174 0 z "},"Š":{"ha":376,"x_min":11,"x_max":365,"o":"m 215 789 l 215 925 l 161 925 l 161 888 q 193 742 161 819 q 263 578 225 664 q 333 400 301 493 q 365 210 365 307 l 365 74 q 344 21 365 42 q 290 0 322 0 l 88 0 q 34 21 56 0 q 13 74 13 42 l 13 351 l 161 351 l 161 114 l 215 114 l 215 210 q 183 393 215 307 q 113 560 151 479 q 43 724 75 642 q 11 899 11 807 l 11 961 q 33 1014 11 992 q 88 1036 56 1036 l 290 1036 q 344 1014 322 1036 q 365 961 365 992 l 365 789 l 215 789 m 213 1194 l 306 1194 l 251 1064 l 132 1064 l 78 1194 l 171 1194 l 192 1113 l 213 1194 z "},"š":{"ha":376,"x_min":11,"x_max":365,"o":"m 213 1028 l 306 1028 l 251 897 l 132 897 l 78 1028 l 171 1028 l 192 946 l 213 1028 m 215 631 l 215 767 l 161 767 l 161 729 q 176 646 161 683 q 214 572 192 608 q 263 499 236 536 q 313 420 290 463 q 350 326 335 378 q 365 210 365 275 l 365 74 q 344 21 365 42 q 290 0 322 0 l 88 0 q 34 21 56 0 q 13 74 13 42 l 13 351 l 161 351 l 161 114 l 215 114 l 215 210 q 200 323 215 275 q 163 409 185 371 q 113 481 140 447 q 64 552 86 515 q 26 634 42 589 q 11 740 11 679 l 11 803 q 33 856 11 833 q 88 878 56 878 l 290 878 q 344 856 322 878 q 365 803 365 833 l 365 631 l 215 631 z "},"Ţ":{"ha":406,"x_min":11,"x_max":394,"o":"m 128 0 l 128 925 l 11 925 l 11 1036 l 394 1036 l 394 925 l 278 925 l 278 0 l 128 0 m 185 0 q 163 -9 169 -1 q 156 -26 156 -17 q 186 -54 156 -49 q 208 -75 208 -58 q 203 -87 208 -82 q 188 -93 199 -93 q 163 -89 178 -93 q 129 -74 149 -85 l 129 -142 q 204 -161 169 -161 q 267 -137 246 -161 q 289 -85 289 -112 q 274 -42 289 -61 q 228 -19 260 -22 l 228 0 l 185 0 z "},"ţ":{"ha":289,"x_min":11,"x_max":278,"o":"m 88 0 q 33 21 56 0 q 11 74 11 42 l 11 1036 l 161 1036 l 161 878 l 278 878 l 278 767 l 161 767 l 161 114 l 278 114 l 278 0 l 88 0 m 129 0 q 107 -9 114 -1 q 100 -26 100 -17 q 131 -54 100 -49 q 153 -75 153 -58 q 148 -87 153 -82 q 132 -93 143 -93 q 108 -89 122 -93 q 74 -74 93 -85 l 74 -142 q 149 -161 114 -161 q 212 -137 190 -161 q 233 -85 233 -112 q 219 -42 233 -61 q 172 -19 204 -22 l 172 0 l 129 0 z "},"Ť":{"ha":406,"x_min":11,"x_max":394,"o":"m 224 1194 l 317 1194 l 263 1064 l 143 1064 l 89 1194 l 182 1194 l 203 1113 l 224 1194 m 11 1036 l 394 1036 l 394 925 l 278 925 l 278 0 l 128 0 l 128 925 l 11 925 l 11 1036 z "},"ť":{"ha":314,"x_min":11,"x_max":328,"o":"m 161 767 l 161 114 l 278 114 l 278 0 l 88 0 q 33 21 56 0 q 11 74 11 42 l 11 1036 l 161 1036 l 161 878 l 278 878 l 278 767 l 161 767 m 193 1149 l 328 1149 l 328 1089 q 317 1044 328 1061 q 279 1001 307 1026 l 193 921 l 193 1018 l 269 1063 l 193 1063 l 193 1149 z "},"Ŧ":{"ha":406,"x_min":11,"x_max":394,"o":"m 39 878 l 128 878 l 128 925 l 11 925 l 11 1036 l 394 1036 l 394 925 l 278 925 l 278 878 l 367 878 l 367 804 l 278 804 l 278 0 l 128 0 l 128 804 l 39 804 l 39 878 z "},"ŧ":{"ha":289,"x_min":11,"x_max":278,"o":"m 161 114 l 278 114 l 278 0 l 88 0 q 33 21 56 0 q 11 74 11 42 l 11 1036 l 161 1036 l 161 878 l 278 878 l 278 767 l 161 767 l 161 706 l 278 706 l 278 631 l 161 631 l 161 114 z "},"Ũ":{"ha":376,"x_min":11,"x_max":365,"o":"m 161 114 l 215 114 l 161 114 m 215 1036 l 215 114 l 161 114 l 161 1036 l 11 1036 l 11 74 q 32 21 11 42 q 85 0 53 0 l 289 0 q 343 21 321 0 q 365 74 365 42 l 365 1036 l 215 1036 m 158 1096 q 153 1091 156 1096 q 150 1063 150 1086 l 63 1063 l 63 1110 q 77 1164 63 1142 q 126 1186 92 1186 q 158 1182 142 1186 q 189 1172 174 1178 q 216 1163 204 1167 q 235 1158 228 1158 q 240 1164 238 1158 q 243 1193 243 1169 l 333 1193 l 333 1138 q 318 1090 333 1110 q 269 1071 303 1071 q 235 1075 253 1071 q 203 1083 218 1079 q 176 1092 188 1088 q 158 1096 164 1096 z "},"ũ":{"ha":376,"x_min":11,"x_max":365,"o":"m 158 939 q 153 934 156 939 q 150 906 150 929 l 63 906 l 63 953 q 77 1007 63 985 q 126 1029 92 1029 q 158 1025 142 1029 q 189 1015 174 1021 q 216 1006 204 1010 q 235 1001 228 1001 q 240 1007 238 1001 q 243 1036 243 1013 l 333 1036 l 333 981 q 318 933 333 953 q 269 914 303 914 q 235 918 253 914 q 203 926 218 922 q 176 935 188 931 q 158 939 164 939 m 161 114 l 215 114 l 161 114 m 215 878 l 215 114 l 161 114 l 161 878 l 11 878 l 11 74 q 32 21 11 42 q 85 0 53 0 l 289 0 q 343 21 321 0 q 365 74 365 42 l 365 878 l 215 878 z "},"Ū":{"ha":376,"x_min":11,"x_max":365,"o":"m 104 1128 l 272 1128 l 272 1064 l 104 1064 l 104 1128 m 161 114 l 215 114 l 161 114 m 365 1036 l 365 74 q 343 21 365 42 q 289 0 321 0 l 85 0 q 32 21 53 0 q 11 74 11 42 l 11 1036 l 161 1036 l 161 114 l 215 114 l 215 1036 l 365 1036 z "},"ū":{"ha":376,"x_min":11,"x_max":365,"o":"m 76 1036 l 300 1036 l 300 972 l 76 972 l 76 1036 m 161 114 l 215 114 l 161 114 m 365 878 l 365 74 q 343 21 365 42 q 289 0 321 0 l 85 0 q 32 21 53 0 q 11 74 11 42 l 11 878 l 161 878 l 161 114 l 215 114 l 215 878 l 365 878 z "},"Ŭ":{"ha":376,"x_min":11,"x_max":365,"o":"m 164 1176 l 164 1129 l 214 1129 l 214 1176 l 296 1176 l 296 1126 q 236 1067 296 1067 l 146 1067 q 85 1126 85 1067 l 85 1176 l 164 1176 m 161 114 l 215 114 l 161 114 m 365 1036 l 365 74 q 343 21 365 42 q 289 0 321 0 l 85 0 q 32 21 53 0 q 11 74 11 42 l 11 1036 l 161 1036 l 161 114 l 215 114 l 215 1036 l 365 1036 z "},"ŭ":{"ha":376,"x_min":11,"x_max":365,"o":"m 164 1036 l 164 989 l 214 989 l 214 1036 l 296 1036 l 296 986 q 236 926 296 926 l 146 926 q 85 986 85 926 l 85 1036 l 164 1036 m 161 114 l 215 114 l 161 114 m 365 878 l 365 74 q 343 21 365 42 q 289 0 321 0 l 85 0 q 32 21 53 0 q 11 74 11 42 l 11 878 l 161 878 l 161 114 l 215 114 l 215 878 l 365 878 z "},"Ů":{"ha":376,"x_min":11,"x_max":365,"o":"m 107 1144 q 131 1201 107 1178 q 188 1224 154 1224 q 244 1201 221 1224 q 267 1144 267 1178 q 244 1088 267 1111 q 188 1064 221 1064 q 131 1088 154 1064 q 107 1144 107 1111 m 154 1144 q 163 1120 154 1129 q 188 1111 172 1111 q 212 1120 203 1111 q 221 1144 221 1129 q 212 1169 221 1160 q 188 1178 203 1178 q 163 1169 172 1178 q 154 1144 154 1160 m 161 114 l 215 114 l 161 114 m 365 1036 l 365 74 q 343 21 365 42 q 289 0 321 0 l 85 0 q 32 21 53 0 q 11 74 11 42 l 11 1036 l 161 1036 l 161 114 l 215 114 l 215 1036 l 365 1036 z "},"ů":{"ha":376,"x_min":11,"x_max":365,"o":"m 108 992 q 132 1048 108 1025 q 189 1071 156 1071 q 245 1048 222 1071 q 268 992 268 1025 q 245 935 268 958 q 189 911 222 911 q 132 935 156 911 q 108 992 108 958 m 156 992 q 165 967 156 976 q 189 958 174 958 q 213 967 204 958 q 222 992 222 976 q 213 1016 222 1007 q 189 1025 204 1025 q 165 1016 174 1025 q 156 992 156 1007 m 161 114 l 215 114 l 161 114 m 365 878 l 365 74 q 343 21 365 42 q 289 0 321 0 l 85 0 q 32 21 53 0 q 11 74 11 42 l 11 878 l 161 878 l 161 114 l 215 114 l 215 878 l 365 878 z "},"Ű":{"ha":376,"x_min":11,"x_max":365,"o":"m 161 114 l 215 114 l 161 114 m 365 1036 l 365 74 q 343 21 365 42 q 289 0 321 0 l 85 0 q 32 21 53 0 q 11 74 11 42 l 11 1036 l 161 1036 l 161 114 l 215 114 l 215 1036 l 365 1036 m 114 1064 l 63 1064 l 129 1194 l 235 1194 l 114 1064 m 244 1064 l 193 1064 l 260 1194 l 365 1194 l 244 1064 z "},"ű":{"ha":376,"x_min":11,"x_max":365,"o":"m 114 906 l 63 906 l 129 1036 l 235 1036 l 114 906 m 244 906 l 193 906 l 260 1036 l 365 1036 l 244 906 m 161 114 l 215 114 l 161 114 m 365 878 l 365 74 q 343 21 365 42 q 289 0 321 0 l 85 0 q 32 21 53 0 q 11 74 11 42 l 11 878 l 161 878 l 161 114 l 215 114 l 215 878 l 365 878 z "},"Ų":{"ha":376,"x_min":11,"x_max":365,"o":"m 232 -158 l 201 -158 q 124 -135 150 -158 q 97 -82 97 -112 q 112 -37 97 -60 q 158 0 126 -15 l 225 0 q 181 -12 197 0 q 165 -37 165 -24 q 181 -62 165 -51 q 232 -72 197 -72 l 232 -158 m 161 114 l 215 114 l 161 114 m 365 1036 l 365 74 q 343 21 365 42 q 289 0 321 0 l 85 0 q 32 21 53 0 q 11 74 11 42 l 11 1036 l 161 1036 l 161 114 l 215 114 l 215 1036 l 365 1036 z "},"ų":{"ha":376,"x_min":11,"x_max":365,"o":"m 161 114 l 215 114 l 161 114 m 365 878 l 365 74 q 343 21 365 42 q 289 0 321 0 l 85 0 q 32 21 53 0 q 11 74 11 42 l 11 878 l 161 878 l 161 114 l 215 114 l 215 878 l 365 878 m 232 -158 l 201 -158 q 124 -135 150 -158 q 97 -82 97 -112 q 112 -37 97 -60 q 158 0 126 -15 l 225 0 q 181 -12 197 0 q 165 -37 165 -24 q 181 -62 165 -51 q 232 -72 197 -72 l 232 -158 z "},"Ŵ":{"ha":643,"x_min":0,"x_max":643,"o":"m 321 1146 l 300 1064 l 207 1064 l 261 1194 l 381 1194 l 435 1064 l 342 1064 l 321 1146 m 643 1036 l 556 0 l 371 0 l 321 625 l 272 0 l 86 0 l 0 1036 l 161 1036 l 179 394 l 250 1036 l 393 1036 l 463 394 l 482 1036 l 643 1036 z "},"ŵ":{"ha":581,"x_min":11,"x_max":569,"o":"m 292 988 l 271 906 l 178 906 l 232 1036 l 351 1036 l 406 906 l 313 906 l 292 988 m 365 0 q 312 22 333 0 q 290 75 290 43 q 269 22 290 43 q 215 0 247 0 l 86 0 q 33 22 54 0 q 11 75 11 43 l 11 878 l 161 878 l 161 114 l 215 114 l 215 878 l 365 878 l 365 114 l 419 114 l 419 878 l 569 878 l 569 75 q 548 22 569 43 q 494 0 526 0 l 365 0 z "},"Ŷ":{"ha":479,"x_min":7,"x_max":472,"o":"m 239 1146 l 218 1064 l 125 1064 l 179 1194 l 299 1194 l 353 1064 l 260 1064 l 239 1146 m 472 1036 l 314 307 l 314 0 l 164 0 l 164 307 l 7 1036 l 168 1036 l 239 549 l 311 1036 l 472 1036 z "},"ŷ":{"ha":374,"x_min":11,"x_max":363,"o":"m 186 988 l 165 906 l 72 906 l 126 1036 l 246 1036 l 300 906 l 207 906 l 186 988 m 214 878 l 363 878 l 363 -83 q 341 -137 363 -115 q 288 -158 319 -158 l 11 -158 l 11 -46 l 214 -46 l 214 0 l 85 0 q 32 21 53 0 q 11 74 11 42 l 11 878 l 160 878 l 160 114 l 214 114 l 214 878 z "},"Ÿ":{"ha":479,"x_min":7,"x_max":472,"o":"m 125 1064 l 125 1174 l 221 1174 l 221 1064 l 125 1064 m 258 1064 l 258 1174 l 354 1174 l 354 1064 l 258 1064 m 472 1036 l 314 307 l 314 0 l 164 0 l 164 307 l 7 1036 l 168 1036 l 239 549 l 311 1036 l 472 1036 z "},"Ź":{"ha":406,"x_min":11,"x_max":394,"o":"m 225 1064 l 146 1064 l 213 1194 l 360 1194 l 225 1064 m 24 1036 l 376 1036 l 376 925 q 361 838 376 896 q 322 704 346 779 q 272 546 299 629 q 222 382 246 463 q 183 231 199 301 q 168 114 168 161 l 394 114 l 394 0 l 11 0 l 11 114 q 27 231 11 161 q 66 382 43 301 q 117 546 89 463 q 167 704 144 629 q 206 838 190 779 q 222 925 222 896 l 24 925 l 24 1036 z "},"ź":{"ha":376,"x_min":11,"x_max":365,"o":"m 186 988 l 165 906 l 72 906 l 126 1036 l 246 1036 l 300 906 l 207 906 l 186 988 m 24 878 l 347 878 l 347 767 q 319 656 347 722 q 256 514 290 590 q 194 358 222 438 q 165 208 165 279 l 165 114 l 217 114 l 217 351 l 365 351 l 365 0 l 11 0 l 11 208 q 25 307 11 256 q 59 410 39 358 q 103 514 79 463 q 148 612 128 565 q 182 698 168 658 q 196 767 196 738 l 24 767 l 24 878 z "},"Ż":{"ha":406,"x_min":11,"x_max":394,"o":"m 160 1082 l 160 1178 l 256 1178 l 256 1082 l 160 1082 m 24 1036 l 376 1036 l 376 925 q 361 838 376 896 q 322 704 346 779 q 272 546 299 629 q 222 382 246 463 q 183 231 199 301 q 168 114 168 161 l 394 114 l 394 0 l 11 0 l 11 114 q 27 231 11 161 q 66 382 43 301 q 117 546 89 463 q 167 704 144 629 q 206 838 190 779 q 222 925 222 896 l 24 925 l 24 1036 z "},"ż":{"ha":376,"x_min":11,"x_max":365,"o":"m 142 922 l 142 1018 l 238 1018 l 238 922 l 142 922 m 24 878 l 347 878 l 347 767 q 319 656 347 722 q 256 514 290 590 q 194 358 222 438 q 165 208 165 279 l 165 114 l 217 114 l 217 351 l 365 351 l 365 0 l 11 0 l 11 208 q 25 307 11 256 q 59 410 39 358 q 103 514 79 463 q 148 612 128 565 q 182 698 168 658 q 196 767 196 738 l 24 767 l 24 878 z "},"Ž":{"ha":406,"x_min":11,"x_max":394,"o":"m 218 1194 l 311 1194 l 257 1064 l 138 1064 l 83 1194 l 176 1194 l 197 1113 l 218 1194 m 24 1036 l 376 1036 l 376 925 q 361 838 376 896 q 322 704 346 779 q 272 546 299 629 q 222 382 246 463 q 183 231 199 301 q 168 114 168 161 l 394 114 l 394 0 l 11 0 l 11 114 q 27 231 11 161 q 66 382 43 301 q 117 546 89 463 q 167 704 144 629 q 206 838 190 779 q 222 925 222 896 l 24 925 l 24 1036 z "},"ž":{"ha":376,"x_min":11,"x_max":365,"o":"m 213 1036 l 306 1036 l 251 906 l 132 906 l 78 1036 l 171 1036 l 192 954 l 213 1036 m 24 878 l 347 878 l 347 767 q 319 656 347 722 q 256 514 290 590 q 194 358 222 438 q 165 208 165 279 l 165 114 l 217 114 l 217 351 l 365 351 l 365 0 l 11 0 l 11 208 q 25 307 11 256 q 59 410 39 358 q 103 514 79 463 q 148 612 128 565 q 182 698 168 658 q 196 767 196 738 l 24 767 l 24 878 z "},"ſ":{"ha":319,"x_min":11,"x_max":308,"o":"m 11 878 l 43 878 l 43 961 q 64 1014 43 992 q 117 1036 85 1036 l 308 1036 l 308 926 l 193 926 l 193 0 l 43 0 l 43 767 l 11 767 l 11 878 z "},"ƒ":{"ha":288,"x_min":-104,"x_max":276,"o":"m 11 961 q 32 1014 11 992 q 85 1036 53 1036 l 276 1036 l 276 926 l 161 926 l 161 878 l 276 878 l 276 767 l 161 767 l 161 -83 q 140 -136 161 -114 q 88 -158 119 -158 l -104 -158 l -104 -49 l 11 -49 l 11 961 l 11 961 z "},"Ș":{"ha":376,"x_min":11,"x_max":365,"o":"m 117 -29 l 251 -29 l 251 -89 q 241 -134 251 -117 q 203 -176 231 -151 l 117 -257 l 117 -160 l 193 -115 l 117 -115 l 117 -29 m 215 789 l 215 925 l 161 925 l 161 888 q 193 742 161 819 q 263 578 225 664 q 333 400 301 493 q 365 210 365 307 l 365 74 q 344 21 365 42 q 290 0 322 0 l 88 0 q 34 21 56 0 q 13 74 13 42 l 13 351 l 161 351 l 161 114 l 215 114 l 215 210 q 183 393 215 307 q 113 560 151 479 q 43 724 75 642 q 11 899 11 807 l 11 961 q 33 1014 11 992 q 88 1036 56 1036 l 290 1036 q 344 1014 322 1036 q 365 961 365 992 l 365 789 l 215 789 z "},"ș":{"ha":376,"x_min":11,"x_max":365,"o":"m 117 -29 l 251 -29 l 251 -89 q 241 -134 251 -117 q 203 -176 231 -151 l 117 -257 l 117 -160 l 193 -115 l 117 -115 l 117 -29 m 215 631 l 215 767 l 161 767 l 161 729 q 176 646 161 683 q 214 572 192 608 q 263 499 236 536 q 313 420 290 463 q 350 326 335 378 q 365 210 365 275 l 365 74 q 344 21 365 42 q 290 0 322 0 l 88 0 q 34 21 56 0 q 13 74 13 42 l 13 351 l 161 351 l 161 114 l 215 114 l 215 210 q 200 323 215 275 q 163 409 185 371 q 113 481 140 447 q 64 552 86 515 q 26 634 42 589 q 11 740 11 679 l 11 803 q 33 856 11 833 q 88 878 56 878 l 290 878 q 344 856 322 878 q 365 803 365 833 l 365 631 l 215 631 z "},"Ț":{"ha":406,"x_min":11,"x_max":394,"o":"m 11 1036 l 394 1036 l 394 925 l 278 925 l 278 0 l 128 0 l 128 925 l 11 925 l 11 1036 m 136 -29 l 271 -29 l 271 -89 q 260 -134 271 -117 q 222 -176 250 -151 l 136 -257 l 136 -160 l 213 -115 l 136 -115 l 136 -29 z "},"ț":{"ha":289,"x_min":11,"x_max":278,"o":"m 72 -29 l 207 -29 l 207 -89 q 197 -134 207 -117 q 158 -176 186 -151 l 72 -257 l 72 -160 l 149 -115 l 72 -115 l 72 -29 m 161 767 l 161 114 l 278 114 l 278 0 l 88 0 q 33 21 56 0 q 11 74 11 42 l 11 1036 l 161 1036 l 161 878 l 278 878 l 278 767 l 161 767 z "},"ˆ":{"ha":250,"x_min":11,"x_max":239,"o":"m 125 1146 l 104 1064 l 11 1064 l 65 1194 l 185 1194 l 239 1064 l 146 1064 l 125 1146 z "},"ˇ":{"ha":250,"x_min":11,"x_max":239,"o":"m 146 1194 l 239 1194 l 185 1064 l 65 1064 l 11 1194 l 104 1194 l 125 1113 l 146 1194 z "},"ˉ":{"ha":190,"x_min":11,"x_max":179,"o":"m 11 1128 l 179 1128 l 179 1064 l 11 1064 l 11 1128 z "},"˘":{"ha":233,"x_min":11,"x_max":222,"o":"m 90 1176 l 90 1129 l 140 1129 l 140 1176 l 222 1176 l 222 1126 q 163 1067 222 1067 l 72 1067 q 11 1126 11 1067 l 11 1176 l 90 1176 z "},"˙":{"ha":118,"x_min":11,"x_max":107,"o":"m 11 1082 l 11 1178 l 107 1178 l 107 1082 l 11 1082 z "},"˚":{"ha":182,"x_min":11,"x_max":171,"o":"m 11 1144 q 35 1201 11 1178 q 92 1224 58 1224 q 148 1201 125 1224 q 171 1144 171 1178 q 148 1088 171 1111 q 92 1064 125 1064 q 35 1088 58 1064 q 11 1144 11 1111 m 58 1144 q 67 1120 58 1129 q 92 1111 76 1111 q 116 1120 107 1111 q 125 1144 125 1129 q 116 1169 125 1160 q 92 1178 107 1178 q 67 1169 76 1178 q 58 1144 58 1160 z "},"˛":{"ha":157,"x_min":11,"x_max":146,"o":"m 146 -158 l 115 -158 q 38 -135 64 -158 q 11 -82 11 -112 q 26 -37 11 -60 q 72 0 40 -15 l 139 0 q 95 -12 111 0 q 79 -37 79 -24 q 95 -62 79 -51 q 146 -72 111 -72 l 146 -158 z "},"˜":{"ha":293,"x_min":11,"x_max":282,"o":"m 107 1097 q 101 1092 104 1097 q 99 1064 99 1088 l 11 1064 l 11 1111 q 26 1165 11 1143 q 75 1188 40 1188 q 106 1183 90 1188 q 138 1174 122 1179 q 165 1164 153 1168 q 183 1160 176 1160 q 189 1165 186 1160 q 192 1194 192 1171 l 282 1194 l 282 1139 q 267 1092 282 1111 q 218 1072 251 1072 q 184 1076 201 1072 q 151 1085 167 1081 q 124 1093 136 1089 q 107 1097 113 1097 z "},"˝":{"ha":325,"x_min":11,"x_max":314,"o":"m 63 1064 l 11 1064 l 78 1194 l 183 1194 l 63 1064 m 193 1064 l 142 1064 l 208 1194 l 314 1194 l 193 1064 z "},"μ":{"ha":376,"x_min":11,"x_max":365,"o":"m 161 111 l 215 111 l 161 111 m 365 878 l 365 0 l 161 0 l 161 -158 l 11 -158 l 11 878 l 161 878 l 161 111 l 215 111 l 215 878 l 365 878 z "},"Ẁ":{"ha":643,"x_min":0,"x_max":643,"o":"m 150 1194 l 297 1194 l 364 1064 l 285 1064 l 150 1194 m 643 1036 l 556 0 l 371 0 l 321 625 l 272 0 l 86 0 l 0 1036 l 161 1036 l 179 394 l 250 1036 l 393 1036 l 463 394 l 482 1036 l 643 1036 z "},"ẁ":{"ha":581,"x_min":11,"x_max":569,"o":"m 132 1036 l 279 1036 l 346 906 l 267 906 l 132 1036 m 365 0 q 312 22 333 0 q 290 75 290 43 q 269 22 290 43 q 215 0 247 0 l 86 0 q 33 22 54 0 q 11 75 11 43 l 11 878 l 161 878 l 161 114 l 215 114 l 215 878 l 365 878 l 365 114 l 419 114 l 419 878 l 569 878 l 569 75 q 548 22 569 43 q 494 0 526 0 l 365 0 z "},"Ẃ":{"ha":643,"x_min":0,"x_max":643,"o":"m 358 1064 l 279 1064 l 346 1194 l 493 1194 l 358 1064 m 643 1036 l 556 0 l 371 0 l 321 625 l 272 0 l 86 0 l 0 1036 l 161 1036 l 179 394 l 250 1036 l 393 1036 l 463 394 l 482 1036 l 643 1036 z "},"ẃ":{"ha":581,"x_min":11,"x_max":569,"o":"m 324 906 l 244 906 l 311 1036 l 458 1036 l 324 906 m 365 0 q 312 22 333 0 q 290 75 290 43 q 269 22 290 43 q 215 0 247 0 l 86 0 q 33 22 54 0 q 11 75 11 43 l 11 878 l 161 878 l 161 114 l 215 114 l 215 878 l 365 878 l 365 114 l 419 114 l 419 878 l 569 878 l 569 75 q 548 22 569 43 q 494 0 526 0 l 365 0 z "},"Ẅ":{"ha":643,"x_min":0,"x_max":643,"o":"m 207 1064 l 207 1174 l 303 1174 l 303 1064 l 207 1064 m 340 1064 l 340 1174 l 436 1174 l 436 1064 l 340 1064 m 643 1036 l 556 0 l 371 0 l 321 625 l 272 0 l 86 0 l 0 1036 l 161 1036 l 179 394 l 250 1036 l 393 1036 l 463 394 l 482 1036 l 643 1036 z "},"ẅ":{"ha":581,"x_min":11,"x_max":569,"o":"m 176 926 l 176 1036 l 272 1036 l 272 926 l 176 926 m 310 926 l 310 1036 l 406 1036 l 406 926 l 310 926 m 365 0 q 312 22 333 0 q 290 75 290 43 q 269 22 290 43 q 215 0 247 0 l 86 0 q 33 22 54 0 q 11 75 11 43 l 11 878 l 161 878 l 161 114 l 215 114 l 215 878 l 365 878 l 365 114 l 419 114 l 419 878 l 569 878 l 569 75 q 548 22 569 43 q 494 0 526 0 l 365 0 z "},"–":{"ha":438,"x_min":42,"x_max":396,"o":"m 42 500 l 396 500 l 396 389 l 42 389 l 42 500 z "},"—":{"ha":642,"x_min":42,"x_max":600,"o":"m 42 500 l 600 500 l 600 389 l 42 389 l 42 500 z "},"‘":{"ha":190,"x_min":28,"x_max":163,"o":"m 163 764 l 28 764 l 28 865 q 38 915 28 893 q 76 961 49 938 l 163 1033 l 163 922 l 86 878 l 163 878 l 163 764 z "},"’":{"ha":157,"x_min":11,"x_max":146,"o":"m 11 1036 l 146 1036 l 146 935 q 135 885 146 907 q 97 839 125 863 l 11 767 l 11 878 l 88 922 l 11 922 l 11 1036 z "},"‚":{"ha":190,"x_min":28,"x_max":163,"o":"m 28 114 l 163 114 l 163 13 q 152 -37 163 -15 q 114 -83 142 -60 l 28 -156 l 28 -44 l 104 0 l 28 0 l 28 114 z "},"“":{"ha":350,"x_min":28,"x_max":322,"o":"m 163 764 l 28 764 l 28 865 q 38 915 28 893 q 76 961 49 938 l 163 1033 l 163 922 l 86 878 l 163 878 l 163 764 m 322 764 l 188 764 l 188 865 q 198 915 188 893 q 236 961 208 938 l 322 1033 l 322 922 l 246 878 l 322 878 l 322 764 z "},"”":{"ha":350,"x_min":28,"x_max":322,"o":"m 188 1036 l 322 1036 l 322 935 q 312 885 322 907 q 274 839 301 863 l 188 767 l 188 878 l 264 922 l 188 922 l 188 1036 m 28 1036 l 163 1036 l 163 935 q 152 890 163 907 q 114 847 142 872 l 28 767 l 28 878 l 104 922 l 28 922 l 28 1036 z "},"„":{"ha":350,"x_min":28,"x_max":322,"o":"m 188 114 l 322 114 l 322 13 q 312 -37 322 -15 q 274 -83 301 -60 l 188 -156 l 188 -44 l 264 0 l 188 0 l 188 114 m 28 114 l 163 114 l 163 13 q 152 -37 163 -15 q 114 -83 142 -60 l 28 -156 l 28 -44 l 104 0 l 28 0 l 28 114 z "},"†":{"ha":289,"x_min":28,"x_max":261,"o":"m 28 878 l 83 878 l 83 1036 l 206 1036 l 206 878 l 261 878 l 261 767 l 206 767 l 206 0 l 83 0 l 83 767 l 28 767 l 28 878 z "},"‡":{"ha":289,"x_min":28,"x_max":261,"o":"m 206 1036 l 206 878 l 261 878 l 261 767 l 206 767 l 206 269 l 261 269 l 261 158 l 206 158 l 206 0 l 83 0 l 83 158 l 28 158 l 28 269 l 83 269 l 83 767 l 28 767 l 28 878 l 83 878 l 83 1036 l 206 1036 z "},"•":{"ha":353,"x_min":69,"x_max":283,"o":"m 69 446 q 101 522 69 490 q 176 553 132 553 q 252 522 221 553 q 283 446 283 490 q 252 370 283 401 q 176 339 221 339 q 101 370 132 339 q 69 446 69 401 z "},"…":{"ha":471,"x_min":11,"x_max":460,"o":"m 11 114 l 146 114 l 146 0 l 11 0 l 11 114 m 168 114 l 303 114 l 303 0 l 168 0 l 168 114 m 325 114 l 460 114 l 460 0 l 325 0 l 325 114 z "},"‰":{"ha":707,"x_min":11,"x_max":696,"o":"m 133 0 l 67 0 l 372 1038 l 439 1038 l 133 0 m 458 517 q 485 506 474 517 q 496 481 496 496 l 496 36 q 485 10 496 21 q 458 0 474 0 l 356 0 q 330 10 340 0 q 319 36 319 21 l 319 481 q 330 506 319 496 q 356 517 340 517 l 458 517 m 421 461 l 394 461 l 394 57 l 421 57 l 421 461 m 150 1036 q 176 1026 165 1036 q 188 1000 188 1015 l 188 556 q 176 530 188 540 q 150 519 165 519 l 47 519 q 22 530 32 519 q 11 556 11 540 l 11 1000 q 22 1026 11 1015 q 47 1036 32 1036 l 150 1036 m 113 981 l 86 981 l 86 576 l 113 576 l 113 981 m 658 517 q 685 506 674 517 q 696 481 696 496 l 696 36 q 685 10 696 21 q 658 0 674 0 l 556 0 q 530 10 540 0 q 519 36 519 21 l 519 481 q 530 506 519 496 q 556 517 540 517 l 658 517 m 621 461 l 594 461 l 594 57 l 621 57 l 621 461 z "},"‹":{"ha":292,"x_min":28,"x_max":264,"o":"m 28 496 l 264 711 l 264 575 l 119 450 l 264 354 l 264 204 l 28 406 l 28 496 z "},"›":{"ha":292,"x_min":28,"x_max":264,"o":"m 264 406 l 28 204 l 28 354 l 172 450 l 28 575 l 28 711 l 264 496 l 264 406 z "},"⁄":{"ha":394,"x_min":11,"x_max":383,"o":"m 78 0 l 11 0 l 317 1038 l 383 1038 l 78 0 z "},"€":{"ha":439,"x_min":11,"x_max":428,"o":"m 11 678 l 74 678 l 74 964 q 94 1017 74 994 q 147 1039 115 1039 l 428 1039 l 428 925 l 224 925 l 224 678 l 344 678 l 344 567 l 224 567 l 224 472 l 344 472 l 344 361 l 224 361 l 224 114 l 428 114 l 428 0 l 147 0 q 94 21 115 0 q 74 74 74 42 l 74 361 l 11 361 l 11 472 l 74 472 l 74 567 l 11 567 l 11 678 z "},"™":{"ha":267,"x_min":11,"x_max":256,"o":"m 11 1036 l 111 1036 l 111 1007 l 81 1007 l 81 767 l 42 767 l 42 1007 l 11 1007 l 11 1036 m 218 767 l 218 922 l 199 767 l 174 767 l 156 922 l 156 767 l 117 767 l 117 1036 l 164 1036 l 186 892 l 208 1036 l 256 1036 l 256 767 l 218 767 z "},"−":{"ha":375,"x_min":42,"x_max":333,"o":"m 42 500 l 333 500 l 333 410 l 42 410 l 42 500 z "},"ﬅ":{"ha":501,"x_min":11,"x_max":490,"o":"m 11 878 l 43 878 l 43 961 q 64 1014 43 992 q 117 1036 85 1036 l 374 1036 l 374 878 l 490 878 l 490 767 l 374 767 l 374 114 l 490 114 l 490 0 l 300 0 q 246 21 268 0 q 224 74 224 42 l 224 926 l 193 926 l 193 0 l 43 0 l 43 767 l 11 767 l 11 878 z "}}}
